<?xml version="1.0" standalone="no"?>
<!DOCTYPE svg PUBLIC "-//W3C//DTD SVG 1.1//EN" "http://www.w3.org/Graphics/SVG/1.1/DTD/svg11.dtd" >
<svg xmlns="http://www.w3.org/2000/svg">
<metadata>Generated by IcoMoon</metadata>
<defs>
<font id="slds-utility-icon" horiz-adv-x="1024">
<font-face units-per-em="1024" ascent="960" descent="-64" />
<missing-glyph horiz-adv-x="1024" />
<glyph unicode="&#x20;" horiz-adv-x="512" d="" />
<glyph unicode="&#xe900;" glyph-name="activity" d="M740.431 729.6c-29.538-9.846-55.138-19.692-72.862-27.569-15.754-7.877-33.477-17.723-55.138-31.508 1.969-37.415 1.969-68.923 0-94.523s-7.877-61.046-15.754-110.277v0c55.138-39.385 96.492-70.892 120.123-90.585 3.938-1.969 13.785-11.815 17.723-15.754l84.677 35.446 1.969 1.969c11.815 27.569 21.662 63.015 29.538 108.308 5.908 37.415 7.877 78.769 3.938 124.062l-114.215 100.431zM710.892 782.769l-1.969 5.908c-57.108 33.477-126.031 53.169-196.923 53.169-39.385 0-76.8-5.908-112.246-15.754v-15.754c0-9.846 0-23.631 0-37.415 33.477-3.938 61.046-9.846 84.677-17.723s53.169-21.662 88.615-39.385c27.569 17.723 49.231 29.538 68.923 39.385 17.723 7.877 41.354 17.723 68.923 27.569zM437.169 113.231c70.892 7.877 118.154 15.754 143.754 21.662 27.569 7.877 53.169 13.785 74.831 21.662 17.723 39.385 27.569 68.923 33.477 90.585 3.938 15.754 7.877 37.415 11.815 64.985-7.877 5.908-15.754 11.815-21.662 17.723-23.631 19.692-66.954 51.2-124.062 94.523-27.569-17.723-51.2-27.569-72.862-33.477s-55.138-11.815-102.4-17.723c-17.723-35.446-29.538-64.985-33.477-86.646-5.908-19.692-9.846-49.231-13.785-86.646 17.723-21.662 31.508-35.446 43.323-45.292s33.477-23.631 61.046-39.385zM185.108 223.508h90.585c3.938 31.508 7.877 57.108 13.785 76.8 3.938 23.631 15.754 53.169 31.508 86.646-21.662 25.6-47.262 55.138-59.077 72.862-9.846 17.723-25.6 35.446-43.323 76.8-7.877 0-17.723-1.969-25.6-3.938-21.662-7.877-45.292-21.662-72.862-39.385-1.969-15.754-1.969-31.508-1.969-47.262 0-82.708 25.6-157.538 66.954-222.523zM892.062 343.631c9.846 33.477 13.785 66.954 13.785 102.4 0 9.846 0 17.723 0 27.569-7.877-33.477-15.754-61.046-25.6-86.646 3.938-3.938 5.908-9.846 7.877-15.754s3.938-15.754 3.938-27.569zM208.738 595.692l1.969 3.938c27.569 45.292 49.231 76.8 64.985 96.492 13.785 17.723 37.415 37.415 66.954 63.015-1.969 15.754-1.969 31.508-1.969 43.323-94.523-45.292-167.385-128-202.831-230.4 13.785 5.908 25.6 11.815 37.415 15.754 9.846 3.938 21.662 5.908 33.477 7.877zM732.554 117.169c-35.446-11.815-80.738-23.631-137.846-39.385-27.569-7.877-76.8-13.785-149.662-21.662 21.662-3.938 45.292-5.908 66.954-5.908 80.738 0 157.538 25.6 220.554 66.954zM984.615 446.031c0-261.908-212.677-474.585-472.615-474.585s-472.615 212.677-472.615 474.585 212.677 474.585 472.615 474.585 472.615-212.677 472.615-474.585z" />
<glyph unicode="&#xe901;" glyph-name="add" d="M590.769 388.923h324.923c15.754 0 29.538 13.785 29.538 29.538v59.077c0 15.754-13.785 29.538-29.538 29.538h-324.923c-11.815 0-19.692 7.877-19.692 19.692v324.923c0 15.754-13.785 29.538-29.538 29.538h-59.077c-15.754 0-29.538-13.785-29.538-29.538v-324.923c0-11.815-7.877-19.692-19.692-19.692h-324.923c-15.754 0-29.538-13.785-29.538-29.538v-59.077c0-15.754 13.785-29.538 29.538-29.538h324.923c11.815 0 19.692-7.877 19.692-19.692v-324.923c0-15.754 13.785-29.538 29.538-29.538h59.077c15.754 0 29.538 13.785 29.538 29.538v324.923c0 11.815 7.877 19.692 19.692 19.692z" />
<glyph unicode="&#xe902;" glyph-name="adduser" d="M431.262 231.385c0 53.169 17.723 114.215 45.292 161.477 33.477 59.077 70.892 82.708 100.431 126.031 49.231 72.862 59.077 177.231 27.569 256-31.508 80.738-106.338 128-192.985 126.031s-157.538-55.138-185.108-135.877c-31.508-88.615-17.723-194.954 53.169-261.908 29.538-27.569 57.108-70.892 41.354-112.246-13.785-39.385-61.046-57.108-94.523-72.862-76.8-33.477-169.354-80.738-185.108-171.323-15.754-74.831 35.446-151.631 116.185-151.631h334.769c15.754 0 25.6 19.692 15.754 31.508-49.231 57.108-76.8 129.969-76.8 204.8zM746.338 467.692c-129.969 0-236.308-106.338-236.308-236.308s106.338-236.308 236.308-236.308 236.308 106.338 236.308 236.308-106.338 236.308-236.308 236.308zM866.462 211.692c0-11.815-9.846-19.692-21.662-19.692h-57.108v-59.077c0-11.815-9.846-19.692-21.662-19.692h-39.385c-11.815 0-17.723 7.877-17.723 19.692v59.077h-61.046c-11.815 0-17.723 7.877-17.723 19.692v39.385c0 11.815 5.908 19.692 17.723 19.692h61.046v59.077c0 11.815 5.908 19.692 17.723 19.692h39.385c11.815 0 21.662-7.877 21.662-19.692v-59.077h57.108c11.815 0 21.662-7.877 21.662-19.692v-39.385z" />
<glyph unicode="&#xe903;" glyph-name="ad_set" d="M443.077 859.569h-334.769c-15.754 0-29.538-13.785-29.538-29.538v-313.108c0-15.754 13.785-29.538 29.538-29.538h334.769c15.754 0 29.538 13.785 29.538 29.538v313.108c0 15.754-13.785 29.538-29.538 29.538zM391.877 698.092h-232.369v80.738h232.369v-80.738zM915.692 859.569h-334.769c-15.754 0-29.538-13.785-29.538-29.538v-313.108c0-15.754 13.785-29.538 29.538-29.538h334.769c15.754 0 29.538 13.785 29.538 29.538v313.108c0 15.754-13.785 29.538-29.538 29.538zM864.492 698.092h-232.369v80.738h232.369v-80.738zM443.077 408.615h-334.769c-15.754 0-29.538-13.785-29.538-29.538v-313.108c0-15.754 13.785-29.538 29.538-29.538h334.769c15.754 0 29.538 13.785 29.538 29.538v313.108c0 15.754-13.785 29.538-29.538 29.538zM391.877 247.138h-232.369v80.738h232.369v-80.738zM915.692 408.615h-334.769c-15.754 0-29.538-13.785-29.538-29.538v-313.108c0-15.754 13.785-29.538 29.538-29.538h334.769c15.754 0 29.538 13.785 29.538 29.538v313.108c0 15.754-13.785 29.538-29.538 29.538zM864.492 247.138h-232.369v80.738h232.369v-80.738z" />
<glyph unicode="&#xe904;" glyph-name="anchor" d="M945.231 256.985l-47.262 200.862c-5.908 21.662-33.477 29.538-49.231 15.754l-151.631-139.815c-17.723-15.754-9.846-43.323 11.815-49.231l64.985-19.692c-5.908-13.785-11.815-27.569-19.692-39.385-35.446-59.077-92.554-96.492-183.138-108.308v492.308c51.2 21.662 86.646 72.862 86.646 131.938 0 78.769-64.985 143.754-143.754 143.754-80.738 0-143.754-64.985-143.754-143.754 0-59.077 35.446-108.308 86.646-131.938v-492.308c-90.585 11.815-147.692 49.231-183.138 108.308-7.877 13.785-13.785 25.6-19.692 39.385l64.985 19.692c21.662 5.908 27.569 35.446 11.815 49.231l-153.6 137.846c-17.723 15.754-43.323 7.877-49.231-15.754l-49.231-198.892c-5.908-21.662 15.754-41.354 37.415-35.446l51.2 15.754c7.877-21.662 15.754-41.354 27.569-61.046 57.108-96.492 161.477-153.6 315.077-153.6s256 57.108 315.077 153.6c11.815 19.692 21.662 41.354 27.569 61.046l51.2-15.754c25.6-5.908 45.292 13.785 41.354 35.446zM512 680.369c-31.508 0-57.108 25.6-57.108 57.108s25.6 57.108 57.108 57.108 57.108-25.6 57.108-57.108-25.6-57.108-57.108-57.108z" />
<glyph unicode="&#xe905;" glyph-name="animal_and_nature" d="M342.646 869.415c53.169 19.692 110.277 29.538 169.354 29.538s116.185-9.846 169.354-29.538c17.723 29.538 49.231 51.2 86.646 51.2 55.138 0 98.462-43.323 98.462-98.462 0-15.754-3.938-31.508-9.846-45.292 23.631-19.692 39.385-84.677 49.231-191.015 7.877-59.077 59.077-238.277 59.077-275.692 1.969-157.538-149.662-267.815-452.923-334.769-301.292 64.985-452.923 177.231-452.923 334.769 0 41.354 49.231 214.646 59.077 275.692 11.815 104.369 29.538 167.385 51.2 189.046-7.877 13.785-11.815 29.538-11.815 47.262 0 55.138 43.323 98.462 98.462 98.462 37.415 0 68.923-21.662 86.646-51.2zM413.538 512.985c-35.446-9.846-57.108-43.323-55.138-80.738l7.877-122.092c3.938-76.8 68.923-137.846 145.723-137.846s141.785 61.046 145.723 137.846l7.877 120.123c1.969 37.415-19.692 68.923-55.138 80.738-35.446 9.846-70.892 15.754-106.338 15.754-31.508 0-63.015-3.938-90.585-13.785zM708.923 507.077c33.477 0 59.077 35.446 59.077 78.769s-25.6 78.769-59.077 78.769-59.077-35.446-59.077-78.769 25.6-78.769 59.077-78.769zM315.077 507.077c33.477 0 59.077 35.446 59.077 78.769s-25.6 78.769-59.077 78.769-59.077-35.446-59.077-78.769 25.6-78.769 59.077-78.769zM573.046 414.523c-35.446-39.385-92.554-39.385-126.031 0s-5.908 72.862 63.015 72.862c68.923 0 96.492-33.477 63.015-72.862z" />
<glyph unicode="&#xe906;" glyph-name="announcement" d="M447.015 65.969l-25.6 19.692c-27.569 19.692-27.569 59.077-27.569 78.769v57.108c0 15.754-13.785 29.538-29.538 29.538h-118.154c-15.754 0-29.538-13.785-29.538-29.538v-151.631c0-53.169 31.508-94.523 80.738-94.523h96.492c57.108 0 61.046 39.385 61.046 39.385s9.846 35.446-7.877 51.2zM886.154 605.538v269.785c0 47.262-59.077 61.046-90.585 29.538l-175.262-165.415c-27.569-23.631-63.015-33.477-98.462-33.477h-299.323c-102.4-1.969-183.138-90.585-183.138-192.985v-3.938c0-102.4 80.738-179.2 183.138-179.2h299.323c37.415 0 72.862-15.754 100.431-39.385l173.292-169.354c31.508-31.508 90.585-19.692 90.585 27.569v267.815c59.077 0 94.523 41.354 94.523 94.523s-35.446 94.523-94.523 94.523z" />
<glyph unicode="&#xe907;" glyph-name="answer" d="M512 881.231c-261.908 0-472.615-192.985-472.615-433.231 0-76.8 21.662-147.692 59.077-212.677 3.938-7.877 5.908-17.723 3.938-25.6l-43.323-135.877c-7.877-25.6 15.754-47.262 41.354-39.385l137.846 47.262c9.846 3.938 19.692 1.969 27.569-3.938 72.862-41.354 157.538-64.985 248.123-64.985 261.908 0 472.615 192.985 472.615 433.231-3.938 242.215-214.646 435.2-474.585 435.2zM738.462 544.492l-240.246-236.308c-9.846-9.846-19.692-13.785-33.477-13.785-11.815 0-23.631 3.938-33.477 13.785l-116.185 114.215c-9.846 9.846-9.846 23.631 0 31.508l33.477 31.508c9.846 9.846 23.631 9.846 33.477 0l82.708-82.708 206.769 204.8c9.846 9.846 23.631 9.846 33.477 0l33.477-31.508c7.877-7.877 7.877-23.631 0-31.508z" />
<glyph unicode="&#xe908;" glyph-name="answered_twice" d="M346.585 735.508c-175.262 0-315.077-128-315.077-289.477 0-51.2 13.785-98.462 39.385-141.785 1.969-5.908 3.938-11.815 1.969-17.723l-29.538-90.585c-5.908-17.723 9.846-31.508 27.569-25.6l92.554 31.508c5.908 1.969 13.785 1.969 17.723-1.969 49.231-27.569 104.369-43.323 165.415-43.323 175.262 0 315.077 128 315.077 289.477s-141.785 289.477-315.077 289.477zM498.215 511.015l-159.508-157.538c-5.908-5.908-13.785-9.846-21.662-9.846s-15.754 1.969-21.662 9.846l-78.769 76.8c-5.908 5.908-5.908 15.754 0 21.662l21.662 21.662c5.908 5.908 15.754 5.908 21.662 0l55.138-55.138 137.846 135.877c5.908 5.908 15.754 5.908 21.662 0l21.662-21.662c7.877-5.908 7.877-15.754 1.969-21.662zM675.446 735.508h-82.708c92.554-66.954 161.477-173.292 161.477-289.477s-72.862-226.462-161.477-289.477h82.708c175.262 0 315.077 128 315.077 289.477-1.969 161.477-141.785 289.477-315.077 289.477z" />
<glyph unicode="&#xe909;" glyph-name="apex" d="M955.077 172.308h-531.692c-15.754 0-29.538-13.785-29.538-29.538v-59.077c0-15.754 13.785-29.538 29.538-29.538h531.692c15.754 0 29.538 13.785 29.538 29.538v59.077c0 15.754-13.785 29.538-29.538 29.538zM500.185 530.708l-382.031 305.231c-11.815 9.846-29.538 7.877-39.385-5.908l-33.477-47.262c-9.846-13.785-5.908-31.508 5.908-41.354l271.754-216.615c9.846-7.877 9.846-23.631 0-31.508l-271.754-216.615c-11.815-9.846-15.754-29.538-5.908-41.354l33.477-51.2c9.846-13.785 27.569-15.754 39.385-5.908l382.031 305.231c15.754 11.815 15.754 35.446 0 47.262z" />
<glyph unicode="&#xe90a;" glyph-name="approval" d="M890.092 384.985h-173.292c-51.2 0-94.523 43.323-94.523 94.523 7.877 139.815 72.862 147.692 78.769 238.277 5.908 94.523-53.169 179.2-145.723 198.892-122.092 25.6-232.369-66.954-232.369-185.108 0-104.369 70.892-104.369 78.769-252.062 0-51.2-43.323-94.523-94.523-94.523h-173.292c-51.2 0-94.523-41.354-94.523-94.523v-63.015c0-17.723 13.785-31.508 31.508-31.508h882.215c17.723 0 31.508 13.785 31.508 31.508v63.015c0 53.169-43.323 94.523-94.523 94.523zM892.062 101.415h-760.123c-17.723 0-29.538-13.785-29.538-29.538v-1.969c0-51.2 43.323-94.523 94.523-94.523h632.123c51.2 0 92.554 43.323 92.554 94.523v1.969c0 15.754-13.785 29.538-29.538 29.538z" />
<glyph unicode="&#xe90b;" glyph-name="apps" d="M256 881.231h-118.154c-33.477 0-59.077-25.6-59.077-59.077v-118.154c0-33.477 25.6-59.077 59.077-59.077h118.154c33.477 0 59.077 25.6 59.077 59.077v118.154c0 33.477-25.6 59.077-59.077 59.077zM256 251.077h-118.154c-33.477 0-59.077-25.6-59.077-59.077v-118.154c0-33.477 25.6-59.077 59.077-59.077h118.154c33.477 0 59.077 25.6 59.077 59.077v118.154c0 33.477-25.6 59.077-59.077 59.077zM256 566.154h-118.154c-33.477 0-59.077-25.6-59.077-59.077v-118.154c0-33.477 25.6-59.077 59.077-59.077h118.154c33.477 0 59.077 25.6 59.077 59.077v118.154c0 33.477-25.6 59.077-59.077 59.077zM571.077 881.231h-118.154c-33.477 0-59.077-25.6-59.077-59.077v-118.154c0-33.477 25.6-59.077 59.077-59.077h118.154c33.477 0 59.077 25.6 59.077 59.077v118.154c0 33.477-25.6 59.077-59.077 59.077zM571.077 251.077h-118.154c-33.477 0-59.077-25.6-59.077-59.077v-118.154c0-33.477 25.6-59.077 59.077-59.077h118.154c33.477 0 59.077 25.6 59.077 59.077v118.154c0 33.477-25.6 59.077-59.077 59.077zM571.077 566.154h-118.154c-33.477 0-59.077-25.6-59.077-59.077v-118.154c0-33.477 25.6-59.077 59.077-59.077h118.154c33.477 0 59.077 25.6 59.077 59.077v118.154c0 33.477-25.6 59.077-59.077 59.077zM886.154 881.231h-118.154c-33.477 0-59.077-25.6-59.077-59.077v-118.154c0-33.477 25.6-59.077 59.077-59.077h118.154c33.477 0 59.077 25.6 59.077 59.077v118.154c0 33.477-25.6 59.077-59.077 59.077zM886.154 251.077h-118.154c-33.477 0-59.077-25.6-59.077-59.077v-118.154c0-33.477 25.6-59.077 59.077-59.077h118.154c33.477 0 59.077 25.6 59.077 59.077v118.154c0 33.477-25.6 59.077-59.077 59.077zM886.154 566.154h-118.154c-33.477 0-59.077-25.6-59.077-59.077v-118.154c0-33.477 25.6-59.077 59.077-59.077h118.154c33.477 0 59.077 25.6 59.077 59.077v118.154c0 33.477-25.6 59.077-59.077 59.077z" />
<glyph unicode="&#xe90c;" glyph-name="arrowdown" d="M189.046 349.538c-15.754-15.754-15.754-37.415 0-53.169l295.385-289.477c15.754-15.754 39.385-15.754 55.138 0l297.354 289.477c15.754 15.754 15.754 37.415 0 53.169l-55.138 53.169c-15.754 15.754-39.385 15.754-55.138 0l-92.554-90.585c-15.754-15.754-43.323-5.908-43.323 17.723v531.692c0 19.692-17.723 39.385-39.385 39.385h-78.769c-21.662 0-39.385-21.662-39.385-39.385v-531.692c0-23.631-27.569-33.477-43.323-17.723l-92.554 90.585c-15.754 15.754-39.385 15.754-55.138 0l-53.169-53.169z" />
<glyph unicode="&#xe90d;" glyph-name="arrowup" d="M815.262 546.462c15.754 15.754 15.754 37.415 0 53.169l-295.385 289.477c-15.754 15.754-39.385 15.754-55.138 0l-295.385-289.477c-15.754-15.754-15.754-37.415 0-53.169l55.138-53.169c15.754-15.754 39.385-15.754 55.138 0l92.554 90.585c15.754 15.754 43.323 3.938 43.323-17.723v-531.692c0-19.692 17.723-39.385 39.385-39.385h78.769c21.662 0 39.385 21.662 39.385 39.385v531.692c0 23.631 27.569 33.477 43.323 17.723l92.554-90.585c15.754-15.754 39.385-15.754 55.138 0l51.2 53.169z" />
<glyph unicode="&#xe90e;" glyph-name="attach" d="M346.585 237.292c11.815-11.815 29.538-9.846 41.354 0l196.923 196.923c13.785 13.785 37.415 15.754 55.138 0s15.754-43.323 0-59.077l-242.215-238.277c-53.169-53.169-141.785-53.169-194.954 0l-1.969 1.969c-53.169 53.169-53.169 141.785 0 194.954l427.323 427.323c53.169 53.169 141.785 53.169 194.954 0l1.969-1.969c53.169-53.169 53.169-141.785 0-194.954l-1.969-1.969c-9.846-9.846-11.815-23.631-3.938-35.446 11.815-21.662 21.662-45.292 27.569-68.923 3.938-15.754 21.662-19.692 33.477-9.846 15.754 15.754 29.538 31.508 29.538 31.508 100.431 100.431 100.431 263.877 0 364.308h-3.938c-100.431 100.431-263.877 100.431-364.308 0l-427.323-425.354c-100.431-100.431-100.431-263.877 0-364.308l3.938-3.938c100.431-100.431 261.908-100.431 362.338 0l244.185 242.215c63.015 63.015 61.046 165.415-3.938 228.431-63.015 61.046-165.415 57.108-226.462-5.908l-192.985-192.985c-11.815-11.815-11.815-31.508 0-43.323l45.292-41.354z" />
<glyph unicode="&#xe90f;" glyph-name="automate" d="M513.969 637.046c-104.369 0-191.015-84.677-191.015-191.015s84.677-191.015 191.015-191.015c104.369 0 191.015 84.677 191.015 191.015s-86.646 191.015-191.015 191.015zM513.969 308.185c-76.8 0-139.815 63.015-139.815 139.815s63.015 139.815 139.815 139.815c76.8 0 139.815-63.015 139.815-139.815-1.969-76.8-64.985-139.815-139.815-139.815zM970.831 327.877c9.846 37.415 15.754 78.769 15.754 120.123s-5.908 80.738-15.754 120.123h-53.169c-7.877 29.538-19.692 57.108-33.477 82.708l37.415 37.415c-41.354 68.923-98.462 128-169.354 169.354l-37.415-37.415c-25.6 13.785-53.169 25.6-82.708 33.477v51.2c-37.415 9.846-78.769 15.754-120.123 15.754s-80.738-5.908-120.123-15.754v-53.169c-27.569-7.877-55.138-19.692-80.738-33.477l-39.385 37.415c-70.892-41.354-128-100.431-169.354-169.354l37.415-37.415c-13.785-25.6-25.6-53.169-33.477-82.708h-51.2c-9.846-37.415-15.754-76.8-15.754-118.154s5.908-80.738 15.754-120.123h53.169c7.877-29.538 19.692-57.108 33.477-82.708l-37.415-37.415c41.354-68.923 98.462-128 169.354-169.354l37.415 37.415c25.6-13.785 53.169-25.6 82.708-33.477v-53.169c37.415-9.846 78.769-15.754 120.123-15.754s80.738 5.908 120.123 15.754v53.169c29.538 7.877 57.108 19.692 82.708 33.477l37.415-37.415c68.923 41.354 128 98.462 169.354 169.354l-37.415 37.415c13.785 25.6 25.6 53.169 33.477 82.708h51.2zM856.615 199.877c-13.785-17.723-27.569-35.446-45.292-51.2-15.754-15.754-33.477-31.508-51.2-45.292l-37.415 37.415c-41.354-29.538-90.585-49.231-141.785-59.077v-51.2c-21.662-3.938-45.292-5.908-68.923-5.908s-45.292 1.969-68.923 5.908v51.2c-51.2 9.846-100.431 29.538-141.785 59.077l-37.415-37.415c-17.723 13.785-35.446 29.538-51.2 45.292s-31.508 33.477-45.292 51.2l37.415 37.415c-29.538 41.354-49.231 90.585-59.077 141.785h-51.2c-3.938 21.662-5.908 45.292-5.908 68.923s1.969 45.292 5.908 68.923h53.169c9.846 51.2 29.538 100.431 59.077 141.785l-37.415 37.415c13.785 17.723 29.538 35.446 45.292 51.2s33.477 31.508 51.2 45.292l37.415-37.415c41.354 29.538 90.585 49.231 141.785 59.077v51.2c21.662 3.938 45.292 5.908 68.923 5.908s45.292-1.969 68.923-5.908v-53.169c51.2-9.846 100.431-29.538 141.785-59.077l37.415 37.415c17.723-13.785 35.446-27.569 51.2-45.292 15.754-15.754 31.508-33.477 45.292-51.2l-37.415-37.415c29.538-41.354 49.231-90.585 59.077-141.785h53.169c3.938-21.662 5.908-45.292 5.908-68.923s-1.969-45.292-5.908-68.923h-53.169c-9.846-51.2-29.538-100.431-59.077-141.785l35.446-35.446z" />
<glyph unicode="&#xe910;" glyph-name="back" d="M957.046 507.077h-653.785c-17.723 0-25.6 21.662-13.785 33.477l189.046 189.046c11.815 11.815 11.815 29.538 0 41.354l-43.323 43.323c-11.815 11.815-29.538 11.815-41.354 0l-344.615-346.585c-11.815-11.815-11.815-29.538 0-41.354l344.615-344.615c11.815-11.815 29.538-11.815 41.354 0l41.354 41.354c11.815 11.815 11.815 29.538 0 41.354l-189.046 189.046c-11.815 13.785-3.938 35.446 13.785 35.446h653.785c15.754 0 29.538 11.815 29.538 27.569v59.077c0 15.754-11.815 31.508-27.569 31.508z" />
<glyph unicode="&#xe911;" glyph-name="ban" d="M512 920.615c-259.938 0-472.615-212.677-472.615-472.615s212.677-472.615 472.615-472.615 472.615 212.677 472.615 472.615-212.677 472.615-472.615 472.615zM157.538 448c0 194.954 159.508 354.462 354.462 354.462 76.8 0 147.692-23.631 204.8-64.985l-494.277-494.277c-41.354 57.108-64.985 128-64.985 204.8zM512 93.538c-76.8 0-147.692 23.631-204.8 64.985l494.277 494.277c41.354-57.108 64.985-128 64.985-204.8 0-194.954-159.508-354.462-354.462-354.462z" />
<glyph unicode="&#xe912;" glyph-name="block_visitor" d="M433.231 231.385c0 53.169 17.723 114.215 45.292 161.477 33.477 59.077 70.892 82.708 100.431 126.031 49.231 72.862 59.077 177.231 27.569 256-31.508 80.738-106.338 128-192.985 126.031s-157.538-55.138-185.108-135.877c-31.508-88.615-17.723-194.954 53.169-261.908 29.538-27.569 57.108-70.892 41.354-112.246-13.785-39.385-61.046-57.108-94.523-72.862-76.8-33.477-169.354-80.738-185.108-171.323-15.754-74.831 35.446-151.631 116.185-151.631h334.769c15.754 0 25.6 19.692 15.754 31.508-49.231 57.108-76.8 129.969-76.8 204.8zM915.692 398.769c-92.554 92.554-242.215 92.554-334.769 0s-92.554-242.215 0-334.769 242.215-92.554 334.769 0 92.554 242.215 0 334.769zM636.062 343.631c53.169 53.169 131.938 61.046 192.985 23.631l-216.615-216.615c-37.415 61.046-29.538 139.815 23.631 192.985zM860.554 119.138c-53.169-51.2-131.938-59.077-192.985-25.6l216.615 216.615c35.446-59.077 27.569-137.846-23.631-191.015z" />
<glyph unicode="&#xe913;" glyph-name="bold" d="M807.385 585.846c0 118.154-94.523 216.615-206.769 216.615h-324.923c-21.662 0-39.385-17.723-39.385-39.385v-649.846c0-21.662 17.723-39.385 39.385-39.385h324.923c112.246 0 206.769 98.462 206.769 216.615 0 57.108-21.662 108.308-57.108 147.692 35.446 39.385 57.108 90.585 57.108 147.692zM600.615 211.692h-226.462v157.538h226.462c37.415 0 70.892-37.415 70.892-78.769s-33.477-78.769-70.892-78.769zM600.615 507.077h-226.462v157.538h226.462c37.415 0 70.892-37.415 70.892-78.769s-33.477-78.769-70.892-78.769z" />
<glyph unicode="&#xe914;" glyph-name="bookmark" d="M734.523-16.738l-194.954 194.954c-11.815 11.815-29.538 11.815-41.354 0l-208.738-196.923c-13.785-11.815-33.477-3.938-33.477 13.785v846.769c0 43.323 35.446 78.769 78.769 78.769h354.462c43.323 0 78.769-35.446 78.769-78.769v-844.8c0-17.723-21.662-27.569-33.477-13.785z" />
<glyph unicode="&#xe915;" glyph-name="breadcrumbs" d="M165.415 132.923c-11.815 0-19.692 7.877-19.692 19.692v592.738c0 11.815 7.877 19.692 19.692 19.692h159.508c7.877 0 17.723-3.938 23.631-9.846l228.431-287.508c7.877-9.846 7.877-25.6 0-37.415l-230.4-287.508c-5.908-7.877-15.754-11.815-25.6-11.815l-155.569 1.969zM872.369 467.692l-230.4 285.538c-9.846 11.815-27.569 15.754-41.354 3.938l-45.292-37.415c-13.785-9.846-15.754-29.538-3.938-41.354l187.077-230.4-187.077-232.369c-9.846-11.815-7.877-31.508 3.938-41.354l45.292-37.415c13.785-9.846 29.538-7.877 41.354 3.938l230.4 287.508c7.877 15.754 7.877 29.538 0 39.385z" />
<glyph unicode="&#xe916;" glyph-name="broadcast" d="M39.385 585.846c0-114.215 45.292-222.523 126.031-303.262 17.723-17.723 43.323-17.723 61.046 0s17.723 45.292 0 63.015c-63.015 63.015-98.462 149.662-98.462 240.246s35.446 177.231 98.462 240.246c17.723 17.723 17.723 45.292 0 63.015s-43.323 17.723-61.046 0c-80.738-80.738-126.031-189.046-126.031-303.262zM289.477 408.615c17.723-17.723 45.292-17.723 63.015 0s17.723 45.292 0 63.015c-29.538 29.538-47.262 70.892-47.262 114.215s15.754 82.708 47.262 114.215c17.723 17.723 17.723 45.292 0 63.015s-45.292 17.723-63.015 0c-47.262-47.262-72.862-110.277-72.862-177.231s25.6-129.969 72.862-177.231zM856.615 889.108c-17.723 17.723-45.292 17.723-63.015 0s-17.723-45.292 0-63.015c63.015-63.015 100.431-149.662 100.431-240.246s-35.446-177.231-100.431-240.246c-17.723-17.723-17.723-45.292 0-63.015s45.292-17.723 63.015 0c80.738 80.738 126.031 189.046 126.031 303.262s-45.292 222.523-126.031 303.262zM805.415 585.846c-1.969 66.954-27.569 129.969-74.831 177.231-17.723 17.723-43.323 17.723-61.046 0s-17.723-45.292 0-63.015c29.538-31.508 47.262-70.892 47.262-114.215s-17.723-84.677-47.262-114.215c-17.723-17.723-17.723-45.292 0-63.015s43.323-17.723 61.046 0c47.262 47.262 72.862 110.277 72.862 177.231zM466.708 479.508c-43.323 17.723-70.892 59.077-70.892 108.308 0 63.015 51.2 114.215 114.215 114.215s116.185-51.2 116.185-114.215c0-49.231-29.538-88.615-70.892-106.338v-464.738c0-11.815-11.815-23.631-23.631-21.662h-43.323c-11.815 0-21.662 9.846-21.662 21.662v462.769z" />
<glyph unicode="&#xe917;" glyph-name="brush" d="M972.8 906.831c-66.954 68.923-441.108-143.754-669.538-510.031-9.846-17.723-3.938-39.385 13.785-47.262 51.2-23.631 92.554-66.954 114.215-120.123 7.877-19.692 29.538-25.6 47.262-13.785 354.462 234.338 561.231 622.277 494.277 691.2zM234.338 266.831c-29.538 0-57.108-15.754-76.8-35.446h-1.969c-9.846 0-19.692-15.754-27.569-29.538-31.508-53.169-37.415-116.185-84.677-185.108-7.877-11.815-5.908-29.538 7.877-33.477 66.954-21.662 187.077-1.969 246.154 41.354v-1.969c19.692 3.938 13.785 11.815 19.692 11.815 21.662 39.385 39.385 59.077 39.385 96.492-1.969 72.862-53.169 135.877-122.092 135.877z" />
<glyph unicode="&#xe918;" glyph-name="bucket" d="M964.923 743.385c0 122.092-192.985 177.231-374.154 177.231s-374.154-55.138-374.154-177.231v-7.877c-169.354-51.2-196.923-159.508-196.923-220.554 0-59.077 29.538-120.123 80.738-163.446 45.292-37.415 100.431-59.077 155.569-61.046h15.754c128 3.938 254.031 45.292 289.477 116.185-17.723 13.785-29.538 37.415-29.538 61.046 0 43.323 35.446 78.769 78.769 78.769s78.769-35.446 78.769-78.769c0-33.477-19.692-61.046-49.231-72.862-39.385-110.277-196.923-183.138-384-183.138v-118.154c0-64.985 149.662-118.154 334.769-118.154s334.769 53.169 334.769 118.154v565.169c25.6 23.631 39.385 51.2 39.385 84.677zM590.769 802.462c129.969 0 212.677-29.538 244.185-51.2 5.908-3.938 5.908-11.815 0-15.754-31.508-21.662-114.215-51.2-244.185-51.2s-212.677 29.538-244.185 51.2c-5.908 3.938-5.908 11.815 0 15.754 31.508 21.662 114.215 51.2 244.185 51.2zM151.631 412.554c-33.477 27.569-53.169 64.985-53.169 102.4 0 88.615 80.738 129.969 151.631 147.692l5.908-5.908v-287.508c-37.415 1.969-74.831 17.723-104.369 43.323z" />
<glyph unicode="&#xe919;" glyph-name="builder" d="M226.462 625.231h-157.538c-15.754 0-29.538-13.785-29.538-29.538v-502.154c0-43.323 35.446-78.769 78.769-78.769h108.308c15.754 0 29.538 13.785 29.538 29.538v551.385c0 15.754-13.785 29.538-29.538 29.538zM955.077 625.231h-590.769c-15.754 0-29.538-13.785-29.538-29.538v-551.385c0-15.754 13.785-29.538 29.538-29.538h541.538c43.323 0 78.769 35.446 78.769 78.769v502.154c0 15.754-13.785 29.538-29.538 29.538zM905.846 881.231h-787.692c-43.323 0-78.769-35.446-78.769-78.769v-68.923c0-15.754 13.785-29.538 29.538-29.538h886.154c15.754 0 29.538 13.785 29.538 29.538v68.923c0 43.323-35.446 78.769-78.769 78.769z" />
<glyph unicode="&#xe91a;" glyph-name="call" d="M955.077 213.662l-120.123 96.492c-27.569 21.662-66.954 23.631-94.523 1.969l-102.4-74.831c-11.815-9.846-29.538-7.877-41.354 3.938l-153.6 137.846-137.846 153.6c-11.815 11.815-11.815 27.569-3.938 41.354l74.831 102.4c21.662 27.569 19.692 66.954-1.969 94.523l-96.492 120.123c-29.538 35.446-82.708 39.385-116.185 5.908l-102.4-102.4c-15.754-15.754-23.631-37.415-23.631-59.077 9.846-200.862 100.431-391.877 234.338-525.785s324.923-224.492 525.785-234.338c21.662-1.969 43.323 7.877 59.077 23.631l102.4 102.4c37.415 29.538 35.446 84.677-1.969 112.246z" />
<glyph unicode="&#xe91b;" glyph-name="campaign" d="M512 944.246c-273.723 0-496.246-222.523-496.246-496.246s222.523-496.246 496.246-496.246 496.246 222.523 496.246 496.246-222.523 496.246-496.246 496.246zM512 50.215c-218.585 0-397.785 179.2-397.785 397.785s179.2 397.785 397.785 397.785 397.785-179.2 397.785-397.785-179.2-397.785-397.785-397.785zM512 745.354c-163.446 0-297.354-133.908-297.354-297.354s133.908-297.354 297.354-297.354 297.354 133.908 297.354 297.354-133.908 297.354-297.354 297.354zM512 249.108c-108.308 0-198.892 88.615-198.892 198.892s90.585 198.892 198.892 198.892 198.892-90.585 198.892-198.892-90.585-198.892-198.892-198.892zM512 546.462c-55.138 0-98.462-45.292-98.462-98.462s45.292-98.462 98.462-98.462 98.462 45.292 98.462 98.462-43.323 98.462-98.462 98.462z" />
<glyph unicode="&#xe91c;" glyph-name="cancel_file_request" d="M636.062 662.646h120.123c5.908 0 9.846 7.877 5.908 13.785l-126.031 126.031c-5.908 3.938-13.785 0-13.785-5.908v-120.123c-1.969-7.877 3.938-13.785 13.785-13.785zM630.154 438.154c39.385 39.385 90.585 63.015 141.785 68.923v78.769c0 9.846-5.908 15.754-15.754 15.754h-167.385c-17.723 0-31.508 13.785-31.508 31.508v167.385c0 9.846-5.908 15.754-15.754 15.754h-204.8c-11.815 0-23.631-9.846-23.631-23.631v-61.046c0-5.908 3.938-11.815 5.908-17.723l84.677-84.677c11.815-11.815 21.662-29.538 23.631-47.262 3.938-23.631-3.938-47.262-21.662-64.985l-23.631-21.662c-7.877-7.877-15.754-11.815-23.631-17.723 9.846-3.938 23.631-7.877 35.446-9.846 39.385-3.938 70.892-37.415 70.892-78.769v-33.477c0-21.662-9.846-43.323-25.6-57.108-15.754-15.754-37.415-21.662-59.077-19.692-17.723 1.969-31.508 3.938-49.231 7.877-9.846 3.938-17.723-3.938-17.723-15.754v-47.262c0-11.815 9.846-23.631 23.631-23.631h228.431c-19.692 84.677 1.969 173.292 64.985 238.277zM405.662 359.385v33.477c0 9.846-7.877 15.754-17.723 17.723-82.708 7.877-151.631 78.769-151.631 165.415v17.723c0 9.846 11.815 15.754 17.723 7.877l61.046-61.046c5.908-5.908 17.723-5.908 23.631 0l23.631 23.631c5.908 5.908 5.908 17.723 0 23.631l-147.692 147.692c-5.908 5.908-17.723 5.908-23.631 0l-147.692-149.662c-5.908-5.908-5.908-17.723 0-23.631l23.631-23.631c5.908-5.908 17.723-7.877 23.631-1.969l64.985 61.046c7.877 7.877 21.662 1.969 21.662-7.877v-29.538c0-110.277 96.492-210.708 212.677-220.554 7.877 1.969 15.754 9.846 15.754 19.692zM933.415 392.862c-70.892 70.892-187.077 70.892-259.938 0-70.892-70.892-70.892-187.077 0-259.938 70.892-70.892 187.077-70.892 259.938 0 72.862 72.862 72.862 189.046 0 259.938zM880.246 231.385c5.908-5.908 5.908-17.723-1.969-23.631l-21.662-21.662c-5.908-5.908-13.785-5.908-19.692 1.969l-31.508 31.508-33.477-33.477c-5.908-5.908-13.785-5.908-19.692 1.969l-23.631 21.662c-5.908 5.908-7.877 13.785-1.969 19.692l33.477 33.477-31.508 33.477c-5.908 5.908-7.877 13.785-1.969 19.692l21.662 21.662c5.908 5.908 17.723 7.877 23.631 1.969l31.508-31.508 31.508 31.508c5.908 5.908 17.723 7.877 23.631 1.969l21.662-21.662c5.908-5.908 5.908-17.723-1.969-23.631l-31.508-31.508 33.477-33.477z" />
<glyph unicode="&#xe91d;" glyph-name="cancel_transfer" d="M539.569 320c-21.662 11.815-47.262 23.631-72.862 33.477-49.231 19.692-59.077 37.415-59.077 59.077 0 19.692 13.785 37.415 29.538 53.169 29.538 25.6 43.323 64.985 43.323 106.338 0 78.769-49.231 141.785-137.846 141.785-90.585 0-137.846-63.015-137.846-141.785 0-41.354 13.785-80.738 43.323-106.338 15.754-15.754 29.538-33.477 29.538-53.169s-7.877-37.415-59.077-59.077c-70.892-29.538-139.815-63.015-141.785-126.031 3.938-43.323 37.415-80.738 78.769-80.738h322.954c0 63.015 19.692 124.062 61.046 173.292zM529.723 747.323v59.077c78.769 0 141.785-63.015 141.785-141.785h-59.077l90.585-112.246c5.908-5.908 13.785-5.908 17.723 0l90.585 112.246h-59.077c0 124.062-102.4 224.492-224.492 224.492v59.077l-112.246-90.585c-5.908-5.908-3.938-13.785 1.969-17.723l112.246-92.554zM888.123 290.462c-78.769 78.769-204.8 78.769-283.569 0s-78.769-204.8 0-283.569 204.8-78.769 283.569 0 78.769 206.769 0 283.569zM829.046 115.2c5.908-5.908 5.908-17.723-1.969-25.6l-23.631-23.631c-5.908-5.908-15.754-5.908-21.662 1.969l-33.477 35.446-37.415-37.415c-5.908-5.908-15.754-5.908-21.662 1.969l-25.6 23.631c-5.908 5.908-7.877 15.754-1.969 21.662l37.415 37.415-35.446 37.415c-5.908 5.908-7.877 15.754-1.969 21.662l23.631 23.631c5.908 5.908 17.723 7.877 25.6 1.969l35.446-35.446 35.446 35.446c5.908 5.908 17.723 7.877 25.6 1.969l23.631-23.631c5.908-5.908 5.908-17.723-1.969-25.6l-35.446-35.446 35.446-37.415z" />
<glyph unicode="&#xe91e;" glyph-name="capslock" d="M858.585 544.492l-322.954 366.277c-11.815 13.785-35.446 13.785-47.262 0l-322.954-366.277c-11.815-13.785-1.969-37.415 17.723-37.415h151.631v-246.154c0-15.754 13.785-29.538 29.538-29.538h295.385c15.754 0 29.538 13.785 29.538 29.538v246.154h151.631c19.692 0 29.538 23.631 17.723 37.415zM659.692 113.231h-295.385c-15.754 0-29.538-13.785-29.538-29.538v-78.769c0-15.754 13.785-29.538 29.538-29.538h295.385c15.754 0 29.538 13.785 29.538 29.538v78.769c0 15.754-13.785 29.538-29.538 29.538z" />
<glyph unicode="&#xe91f;" glyph-name="case" d="M338.708 737.477h57.108c7.877 0 13.785 5.908 13.785 13.785v43.323h202.831v-43.323c0-7.877 5.908-13.785 13.785-13.785h57.108c7.877 0 13.785 5.908 13.785 13.785v43.323c0 47.262-39.385 86.646-86.646 86.646h-198.892c-47.262 0-86.646-39.385-86.646-86.646v-43.323c0-7.877 3.938-13.785 13.785-13.785zM858.585 650.831h-693.169c-47.262 0-86.646-39.385-86.646-86.646v-462.769c0-47.262 39.385-86.646 86.646-86.646h693.169c47.262 0 86.646 39.385 86.646 86.646v462.769c0 47.262-39.385 86.646-86.646 86.646z" />
<glyph unicode="&#xe920;" glyph-name="cases" d="M177.231 891.077c0 15.754-13.785 29.538-29.538 29.538h-78.769c-15.754 0-29.538-13.785-29.538-29.538v-610.462c0-15.754 13.785-29.538 29.538-29.538h78.769c15.754 0 29.538 13.785 29.538 29.538v610.462zM984.615 891.077c0 15.754-13.785 29.538-29.538 29.538h-78.769c-15.754 0-29.538-13.785-29.538-29.538v-610.462c0-15.754 13.785-29.538 29.538-29.538h78.769c15.754 0 29.538 13.785 29.538 29.538v610.462zM738.462 920.615h-59.077c-15.754 0-29.538-15.754-29.538-31.508v-244.185c0-7.877 3.938-13.785 11.815-17.723 33.477-17.723 63.015-39.385 88.615-64.985 5.908-5.908 17.723-1.969 17.723 5.908v320.985c0 15.754-13.785 31.508-29.538 31.508zM474.585 660.677c11.815 1.969 25.6 1.969 37.415 1.969s25.6 0 37.415-1.969 21.662 7.877 21.662 19.692v208.738c0 15.754-13.785 31.508-29.538 31.508h-59.077c-15.754 0-29.538-15.754-29.538-31.508v-208.738c0-11.815 9.846-21.662 21.662-19.692zM273.723 562.215c25.6 27.569 57.108 49.231 90.585 64.985 5.908 3.938 9.846 9.846 9.846 17.723v244.185c0 15.754-13.785 31.508-29.538 31.508h-59.077c-15.754 0-29.538-15.754-29.538-31.508v-320.985c0-7.877 9.846-11.815 17.723-5.908zM512 583.877c-141.785 0-256-114.215-256-256 0-43.323 11.815-86.646 31.508-122.092l-139.815-139.815c-11.815-11.815-11.815-29.538 0-41.354l41.354-41.354c11.815-11.815 29.538-11.815 41.354 0l135.877 135.877c41.354-29.538 92.554-47.262 145.723-47.262 141.785 0 256 114.215 256 256s-114.215 256-256 256zM512 190.031c-76.8 0-137.846 61.046-137.846 137.846s61.046 137.846 137.846 137.846 137.846-61.046 137.846-137.846-61.046-137.846-137.846-137.846z" />
<glyph unicode="&#xe921;" glyph-name="center_align_text" d="M945.231 832c0 15.754-13.785 29.538-29.538 29.538h-807.385c-15.754 0-29.538-13.785-29.538-29.538v-59.077c0-15.754 13.785-29.538 29.538-29.538h807.385c15.754 0 29.538 13.785 29.538 29.538v59.077zM827.077 595.692c0 15.754-13.785 29.538-29.538 29.538h-571.077c-15.754 0-29.538-13.785-29.538-29.538v-59.077c0-15.754 13.785-29.538 29.538-29.538h571.077c15.754 0 29.538 13.785 29.538 29.538v59.077zM787.692 123.077c0 15.754-13.785 29.538-29.538 29.538h-492.308c-15.754 0-29.538-13.785-29.538-29.538v-59.077c0-15.754 13.785-29.538 29.538-29.538h492.308c15.754 0 29.538 13.785 29.538 29.538v59.077zM945.231 359.385c0 15.754-13.785 29.538-29.538 29.538h-807.385c-15.754 0-29.538-13.785-29.538-29.538v-59.077c0-15.754 13.785-29.538 29.538-29.538h807.385c15.754 0 29.538 13.785 29.538 29.538v59.077z" />
<glyph unicode="&#xe922;" glyph-name="change_owner" d="M537.6 219.569c-59.077 23.631-68.923 45.292-68.923 68.923s15.754 45.292 35.446 63.015c35.446 29.538 51.2 76.8 51.2 126.031 0 92.554-57.108 167.385-163.446 167.385s-163.446-74.831-163.446-167.385c0-49.231 15.754-96.492 51.2-126.031 19.692-17.723 35.446-39.385 35.446-63.015s-9.846-45.292-68.923-68.923c-86.646-35.446-169.354-74.831-171.323-149.662 3.938-51.2 43.323-94.523 92.554-94.523h452.923c49.231 0 88.615 43.323 88.615 92.554-1.969 74.831-84.677 116.185-171.323 151.631zM876.308 585.846c0 145.723-120.123 265.846-265.846 265.846v68.923l-133.908-108.308c-5.908-5.908-3.938-15.754 1.969-21.662l131.938-106.338v68.923c92.554 0 167.385-74.831 167.385-167.385h-68.923l108.308-133.908c5.908-5.908 15.754-5.908 21.662 0l106.338 133.908h-68.923z" />
<glyph unicode="&#xe923;" glyph-name="change_record_type" d="M393.846 221.538c0 15.754-13.785 29.538-29.538 29.538h-295.385c-15.754 0-29.538-13.785-29.538-29.538v-216.615c0-15.754 13.785-29.538 29.538-29.538h295.385c15.754 0 29.538 13.785 29.538 29.538v216.615zM159.508 526.769h-96.492c-19.692 0-29.538-17.723-17.723-27.569l157.538-163.446c7.877-5.908 19.692-5.908 27.569 0l157.538 163.446c11.815 11.815 1.969 27.569-17.723 27.569h-92.554c0 98.462 96.492 196.923 194.954 196.923v118.154c-177.231 0-313.108-137.846-313.108-315.077zM823.138 560.246c-7.877 5.908-19.692 5.908-27.569 0l-157.538-163.446c-11.815-11.815-1.969-27.569 17.723-27.569h94.523c0-118.154-80.738-196.923-198.892-196.923v-118.154c177.231 0 317.046 137.846 317.046 315.077h96.492c19.692 0 29.538 17.723 17.723 27.569l-159.508 163.446zM984.615 891.077c0 15.754-13.785 29.538-29.538 29.538h-295.385c-15.754 0-29.538-13.785-29.538-29.538v-216.615c0-15.754 13.785-29.538 29.538-29.538h295.385c15.754 0 29.538 13.785 29.538 29.538v216.615z" />
<glyph unicode="&#xe924;" glyph-name="chart" d="M896 499.2l-403.692-222.523c-27.569-13.785-59.077 5.908-59.077 35.446v482.462c0 19.692-19.692 35.446-37.415 29.538-196.923-55.138-338.708-246.154-315.077-464.738 21.662-198.892 181.169-360.369 382.031-382.031 261.908-27.569 482.462 175.262 482.462 431.262 0 23.631-1.969 47.262-5.908 70.892-3.938 19.692-25.6 29.538-43.323 19.692zM545.477 408.615l387.938 206.769c23.631 11.815 31.508 43.323 15.754 64.985-88.615 122.092-226.462 210.708-384 236.308-27.569 5.908-53.169-15.754-53.169-43.323v-445.046c0-17.723 17.723-27.569 33.477-19.692z" />
<glyph unicode="&#xe925;" glyph-name="chat" d="M512 881.231c-261.908 0-470.646-192.985-470.646-431.262 0-74.831 21.662-145.723 57.108-208.738 5.908-9.846 7.877-21.662 3.938-33.477l-61.046-167.385c-5.908-15.754 9.846-29.538 25.6-25.6l169.354 64.985c9.846 3.938 21.662 1.969 33.477-3.938 70.892-39.385 155.569-63.015 246.154-63.015 257.969 1.969 468.677 192.985 468.677 433.231-1.969 242.215-212.677 435.2-472.615 435.2zM275.692 369.231c-43.323 0-78.769 35.446-78.769 78.769s35.446 78.769 78.769 78.769 78.769-35.446 78.769-78.769-35.446-78.769-78.769-78.769zM512 369.231c-43.323 0-78.769 35.446-78.769 78.769s35.446 78.769 78.769 78.769 78.769-35.446 78.769-78.769-35.446-78.769-78.769-78.769zM748.308 369.231c-43.323 0-78.769 35.446-78.769 78.769s35.446 78.769 78.769 78.769 78.769-35.446 78.769-78.769-35.446-78.769-78.769-78.769z" />
<glyph unicode="&#xe926;" glyph-name="check" d="M376.123 123.077l-324.923 326.892c-11.815 11.815-11.815 31.508 0 43.323l43.323 43.323c11.815 11.815 31.508 11.815 43.323 0l244.185-246.154c7.877-7.877 21.662-7.877 29.538 0l478.523 482.462c11.815 11.815 31.508 11.815 43.323 0l43.323-43.323c11.815-11.815 11.815-31.508 0-43.323l-557.292-563.2c-11.815-13.785-31.508-13.785-43.323 0z" />
<glyph unicode="&#xe927;" glyph-name="checkin" d="M512 920.615c-206.769 0-374.154-167.385-374.154-376.123 0-259.938 267.815-498.215 350.523-561.231 13.785-11.815 33.477-11.815 49.231 0 82.708 64.985 348.554 301.292 348.554 561.231 0 208.738-167.385 376.123-374.154 376.123zM512 388.923c-86.646 0-157.538 70.892-157.538 157.538s70.892 157.538 157.538 157.538 157.538-70.892 157.538-157.538-70.892-157.538-157.538-157.538z" />
<glyph unicode="&#xe928;" glyph-name="chevrondown" d="M937.354 609.477l-403.692-407.631c-11.815-11.815-31.508-11.815-43.323 0l-403.692 407.631c-11.815 11.815-11.815 31.508 0 43.323l43.323 43.323c11.815 11.815 31.508 11.815 43.323 0l317.046-320.985c11.815-11.815 31.508-11.815 43.323 0l317.046 319.015c11.815 11.815 31.508 11.815 43.323 0l43.323-43.323c9.846-11.815 9.846-29.538 0-41.354z" />
<glyph unicode="&#xe929;" glyph-name="chevronleft" d="M673.477 20.677l-409.6 403.692c-11.815 11.815-11.815 31.508 0 43.323l409.6 403.692c11.815 11.815 31.508 11.815 43.323 0l43.323-43.323c11.815-11.815 11.815-31.508 0-43.323l-324.923-317.046c-11.815-11.815-11.815-31.508 0-43.323l320.985-317.046c11.815-11.815 11.815-31.508 0-43.323l-43.323-43.323c-9.846-9.846-27.569-9.846-39.385 0z" />
<glyph unicode="&#xe92a;" glyph-name="chevronright" d="M352.492 873.354l407.631-403.692c11.815-11.815 11.815-31.508 0-43.323l-407.631-403.692c-11.815-11.815-31.508-11.815-43.323 0l-43.323 43.323c-11.815 11.815-11.815 31.508 0 43.323l320.985 317.046c11.815 11.815 11.815 31.508 0 43.323l-319.015 317.046c-11.815 11.815-11.815 31.508 0 43.323l43.323 43.323c11.815 9.846 29.538 9.846 41.354 0z" />
<glyph unicode="&#xe92b;" glyph-name="chevronup" d="M86.646 286.523l403.692 407.631c11.815 11.815 31.508 11.815 43.323 0l403.692-407.631c11.815-11.815 11.815-31.508 0-43.323l-43.323-43.323c-11.815-11.815-31.508-11.815-43.323 0l-317.046 322.954c-11.815 11.815-31.508 11.815-43.323 0l-317.046-320.985c-11.815-11.815-31.508-11.815-43.323 0l-43.323 43.323c-9.846 11.815-9.846 29.538 0 41.354z" />
<glyph unicode="&#xe92c;" glyph-name="classic_interface" d="M502.154 256.985v167.385s-74.831-112.246-122.092-189.046-41.354-137.846-41.354-137.846c0-61.046 45.292-112.246 100.431-112.246 33.477 0 63.015 17.723 80.738 47.262 17.723-25.6 45.292-39.385 76.8-39.385 55.138 0 100.431 49.231 100.431 112.246 0 5.908-1.969 11.815-1.969 17.723 0 82.708-181.169 305.231-181.169 305.231v-171.323l23.631-57.108c0-1.969 1.969-3.938 1.969-7.877 0-13.785-11.815-25.6-25.6-25.6s-25.6 11.815-25.6 25.6c0 1.969 0 5.908 1.969 7.877l11.815 57.108zM313.108 402.708l157.538 59.077s-129.969 31.508-220.554 49.231c-90.585 17.723-143.754-9.846-143.754-9.846-57.108-21.662-88.615-80.738-70.892-131.938 11.815-31.508 39.385-53.169 72.862-61.046-17.723-25.6-21.662-57.108-11.815-86.646 19.692-51.2 80.738-76.8 139.815-55.138 5.908 1.969 11.815 5.908 15.754 7.877 78.769 27.569 222.523 275.692 222.523 275.692l-153.6-57.108-5.908-1.969-45.292-41.354c-1.969-1.969-3.938-1.969-5.908-3.938-13.785-5.908-29.538 1.969-33.477 15.754-5.908 13.785 1.969 29.538 15.754 33.477 1.969 0 5.908 1.969 7.877 1.969l59.077 5.908zM391.877 637.046l100.431-135.877s-7.877 133.908-15.754 224.492c-7.877 90.585-49.231 135.877-49.231 135.877-37.415 49.231-102.4 63.015-145.723 29.538-27.569-19.692-39.385-53.169-37.415-86.646-29.538 9.846-61.046 5.908-86.646-11.815-43.323-33.477-49.231-100.431-13.785-149.662 3.938-3.938 7.877-9.846 11.815-13.785 49.231-66.954 328.862-135.877 328.862-135.877l-98.462 131.938-3.938 3.938-53.169 31.508-5.908 5.908c-7.877 11.815-5.908 27.569 5.908 37.415 11.815 7.877 27.569 5.908 37.415-5.908 1.969-1.969 1.969-3.938 3.938-5.908l21.662-55.138zM710.892 402.708l-157.538 59.077s129.969 31.508 220.554 49.231c90.585 17.723 143.754-9.846 143.754-9.846 57.108-21.662 88.615-80.738 70.892-131.938-11.815-31.508-39.385-53.169-72.862-61.046 17.723-25.6 21.662-57.108 11.815-86.646-19.692-51.2-80.738-76.8-139.815-55.138-5.908 1.969-11.815 5.908-15.754 7.877-78.769 27.569-222.523 275.692-222.523 275.692l153.6-57.108 5.908-1.969 45.292-41.354c1.969-1.969 3.938-1.969 5.908-3.938 13.785-5.908 29.538 1.969 33.477 15.754 5.908 13.785-1.969 29.538-15.754 33.477-1.969 0-5.908 1.969-7.877 1.969l-59.077 5.908zM624.246 637.046l-100.431-135.877s7.877 133.908 15.754 224.492 49.231 135.877 49.231 135.877c37.415 49.231 102.4 63.015 145.723 29.538 27.569-19.692 39.385-53.169 37.415-86.646 29.538 7.877 61.046 3.938 84.677-13.785 43.323-33.477 49.231-100.431 13.785-149.662-3.938-3.938-7.877-9.846-11.815-13.785-47.262-64.985-326.892-131.938-326.892-131.938l98.462 131.938 3.938 3.938 53.169 31.508 5.908 5.908c7.877 11.815 5.908 27.569-5.908 37.415-11.815 7.877-27.569 5.908-37.415-5.908-1.969-1.969-1.969-3.938-3.938-5.908l-21.662-57.108z" />
<glyph unicode="&#xe92d;" glyph-name="clear" d="M512 920.615c-261.908 0-472.615-210.708-472.615-472.615s210.708-472.615 472.615-472.615 472.615 210.708 472.615 472.615-210.708 472.615-472.615 472.615zM608.492 432.246l153.6-153.6c7.877-7.877 7.877-19.692 0-27.569l-55.138-55.138c-7.877-7.877-19.692-7.877-27.569 0l-153.6 153.6c-7.877 7.877-19.692 7.877-27.569 0l-153.6-153.6c-7.877-7.877-19.692-7.877-27.569 0l-55.138 55.138c-7.877 7.877-7.877 19.692 0 27.569l153.6 153.6c7.877 7.877 7.877 19.692 0 27.569l-155.569 155.569c-7.877 7.877-7.877 19.692 0 27.569l55.138 55.138c7.877 7.877 19.692 7.877 27.569 0l155.569-155.569c7.877-7.877 19.692-7.877 27.569 0l153.6 153.6c7.877 7.877 19.692 7.877 27.569 0l55.138-55.138c7.877-7.877 7.877-19.692 0-27.569l-153.6-153.6c-5.908-7.877-5.908-19.692 0-27.569z" />
<glyph unicode="&#xe92e;" glyph-name="clock" d="M512 920.615c-259.938 0-472.615-212.677-472.615-472.615s212.677-472.615 472.615-472.615 472.615 212.677 472.615 472.615-212.677 472.615-472.615 472.615zM512 93.538c-194.954 0-354.462 159.508-354.462 354.462s159.508 354.462 354.462 354.462 354.462-159.508 354.462-354.462-159.508-354.462-354.462-354.462zM578.954 444.062c-5.908 5.908-7.877 13.785-7.877 21.662v189.046c0 15.754-13.785 29.538-29.538 29.538h-59.077c-15.754 0-29.538-13.785-29.538-29.538v-238.277c0-7.877 3.938-15.754 7.877-21.662l145.723-145.723c11.815-11.815 29.538-11.815 41.354 0l41.354 41.354c11.815 11.815 11.815 29.538 0 41.354l-110.277 112.246z" />
<glyph unicode="&#xe92f;" glyph-name="close" d="M610.462 459.815l256 257.969c11.815 11.815 11.815 29.538 0 41.354l-39.385 41.354c-11.815 11.815-29.538 11.815-41.354 0l-257.969-257.969c-7.877-7.877-19.692-7.877-27.569 0l-257.969 259.938c-11.815 11.815-29.538 11.815-41.354 0l-41.354-41.354c-11.815-11.815-11.815-29.538 0-41.354l257.969-257.969c7.877-7.877 7.877-19.692 0-27.569l-259.938-259.938c-11.815-11.815-11.815-29.538 0-41.354l41.354-41.354c11.815-11.815 29.538-11.815 41.354 0l257.969 257.969c7.877 7.877 19.692 7.877 27.569 0l257.969-257.969c11.815-11.815 29.538-11.815 41.354 0l41.354 41.354c11.815 11.815 11.815 29.538 0 41.354l-256 257.969c-7.877 7.877-7.877 19.692 0 27.569z" />
<glyph unicode="&#xe930;" glyph-name="collapse_all" d="M945.231 772.923c0 15.754-13.785 29.538-29.538 29.538h-807.385c-15.754 0-29.538-13.785-29.538-29.538v-59.077c0-15.754 13.785-29.538 29.538-29.538h807.385c15.754 0 29.538 13.785 29.538 29.538v59.077zM945.231 182.154c0 15.754-13.785 29.538-29.538 29.538h-807.385c-15.754 0-29.538-13.785-29.538-29.538v-59.077c0-15.754 13.785-29.538 29.538-29.538h807.385c15.754 0 29.538 13.785 29.538 29.538v59.077zM679.385 388.923c15.754 0 29.538 13.785 29.538 29.538v59.077c0 15.754-13.785 29.538-29.538 29.538h-334.769c-15.754 0-29.538-13.785-29.538-29.538v-59.077c0-15.754 13.785-29.538 29.538-29.538h334.769z" />
<glyph unicode="&#xe931;" glyph-name="comments" d="M941.292 349.538c-1.969 7.877-1.969 15.754 1.969 23.631 25.6 45.292 41.354 96.492 41.354 151.631 0 173.292-149.662 315.077-334.769 315.077-86.646 0-165.415-31.508-224.492-82.708 202.831-23.631 362.338-189.046 362.338-389.908 0-49.231-9.846-96.492-27.569-139.815 21.662 7.877 43.323 17.723 63.015 27.569 7.877 3.938 15.754 5.908 23.631 1.969l120.123-47.262c11.815-3.938 21.662 5.908 17.723 17.723l-43.323 122.092zM374.154 682.338c-185.108 0-334.769-141.785-334.769-315.077 0-55.138 15.754-106.338 41.354-151.631 3.938-7.877 5.908-15.754 1.969-23.631l-43.323-120.123c-3.938-11.815 5.908-21.662 17.723-17.723l120.123 47.262c7.877 1.969 15.754 1.969 23.631-1.969 51.2-29.538 110.277-45.292 173.292-45.292 185.108 0 334.769 141.785 334.769 315.077 0 171.323-149.662 313.108-334.769 313.108z" />
<glyph unicode="&#xe932;" glyph-name="company" d="M413.538 881.231h-275.692c-33.477 0-59.077-25.6-59.077-59.077v-787.692c0-9.846 9.846-19.692 19.692-19.692h78.769c11.815 0 19.692 7.877 19.692 19.692v118.154c0 11.815 7.877 19.692 19.692 19.692h118.154c11.815 0 19.692-7.877 19.692-19.692v-118.154c0-11.815 7.877-19.692 19.692-19.692h59.077c21.662 0 39.385 17.723 39.385 39.385v768c0 33.477-25.6 59.077-59.077 59.077zM236.308 260.923c0-5.908-3.938-9.846-9.846-9.846h-59.077c-5.908 0-9.846 3.938-9.846 9.846v98.462c0 5.908 3.938 9.846 9.846 9.846h59.077c5.908 0 9.846-3.938 9.846-9.846v-98.462zM236.308 457.846c0-5.908-3.938-9.846-9.846-9.846h-59.077c-5.908 0-9.846 3.938-9.846 9.846v98.462c0 5.908 3.938 9.846 9.846 9.846h59.077c5.908 0 9.846-3.938 9.846-9.846v-98.462zM236.308 654.769c0-5.908-3.938-9.846-9.846-9.846h-59.077c-5.908 0-9.846 3.938-9.846 9.846v98.462c0 5.908 3.938 9.846 9.846 9.846h59.077c5.908 0 9.846-3.938 9.846-9.846v-98.462zM393.846 260.923c0-5.908-3.938-9.846-9.846-9.846h-59.077c-5.908 0-9.846 3.938-9.846 9.846v98.462c0 5.908 3.938 9.846 9.846 9.846h59.077c5.908 0 9.846-3.938 9.846-9.846v-98.462zM393.846 457.846c0-5.908-3.938-9.846-9.846-9.846h-59.077c-5.908 0-9.846 3.938-9.846 9.846v98.462c0 5.908 3.938 9.846 9.846 9.846h59.077c5.908 0 9.846-3.938 9.846-9.846v-98.462zM393.846 654.769c0-5.908-3.938-9.846-9.846-9.846h-59.077c-5.908 0-9.846 3.938-9.846 9.846v98.462c0 5.908 3.938 9.846 9.846 9.846h59.077c5.908 0 9.846-3.938 9.846-9.846v-98.462zM886.154 684.308h-275.692c-33.477 0-59.077-25.6-59.077-59.077v-590.769c0-9.846 9.846-19.692 19.692-19.692h78.769c11.815 0 19.692 7.877 19.692 19.692v118.154c0 11.815 7.877 19.692 19.692 19.692h118.154c11.815 0 19.692-7.877 19.692-19.692v-118.154c0-11.815 7.877-19.692 19.692-19.692h59.077c21.662 0 39.385 17.723 39.385 39.385v571.077c0 33.477-25.6 59.077-59.077 59.077zM708.923 260.923c0-5.908-3.938-9.846-9.846-9.846h-59.077c-5.908 0-9.846 3.938-9.846 9.846v98.462c0 5.908 3.938 9.846 9.846 9.846h59.077c5.908 0 9.846-3.938 9.846-9.846v-98.462zM708.923 457.846c0-5.908-3.938-9.846-9.846-9.846h-59.077c-5.908 0-9.846 3.938-9.846 9.846v98.462c0 5.908 3.938 9.846 9.846 9.846h59.077c5.908 0 9.846-3.938 9.846-9.846v-98.462zM866.462 260.923c0-5.908-3.938-9.846-9.846-9.846h-59.077c-5.908 0-9.846 3.938-9.846 9.846v98.462c0 5.908 3.938 9.846 9.846 9.846h59.077c5.908 0 9.846-3.938 9.846-9.846v-98.462zM866.462 457.846c0-5.908-3.938-9.846-9.846-9.846h-59.077c-5.908 0-9.846 3.938-9.846 9.846v98.462c0 5.908 3.938 9.846 9.846 9.846h59.077c5.908 0 9.846-3.938 9.846-9.846v-98.462z" />
<glyph unicode="&#xe933;" glyph-name="connected_apps" d="M468.677 345.6l-74.831-346.585c-3.938-19.692 21.662-33.477 33.477-17.723l413.538 512c11.815 13.785 1.969 33.477-13.785 33.477h-220.554c-15.754 0-25.6 17.723-17.723 29.538l194.954 319.015c11.815 19.692-1.969 45.292-25.6 45.292h-348.554c-21.662 0-39.385-13.785-47.262-33.477l-163.446-478.523c-5.908-19.692 7.877-39.385 27.569-39.385h224.492c11.815 0 21.662-11.815 17.723-23.631z" />
<glyph unicode="&#xe934;" glyph-name="contract" d="M582.892 487.385h303.262c19.692 0 25.6 21.662 9.846 37.415l-96.492 98.462 177.231 179.2c9.846 9.846 9.846 27.569 0 37.415l-72.862 72.862c-9.846 7.877-25.6 7.877-37.415-1.969l-177.231-177.231-100.431 96.492c-15.754 15.754-37.415 9.846-37.415-9.846v-303.262c0-13.785 17.723-29.538 31.508-29.538zM441.108 408.615h-303.262c-19.692 0-25.6-21.662-9.846-37.415l96.492-98.462-177.231-179.2c-9.846-9.846-9.846-27.569 0-37.415l72.862-72.862c9.846-9.846 25.6-9.846 37.415 0l179.2 179.2 100.431-96.492c13.785-17.723 35.446-11.815 35.446 7.877v301.292c0 13.785-17.723 33.477-31.508 33.477zM551.385 377.108v-303.262c0-19.692 21.662-25.6 37.415-9.846l98.462 96.492 179.2-177.231c9.846-9.846 27.569-9.846 37.415 0l72.862 72.862c7.877 9.846 7.877 25.6-1.969 37.415l-177.231 177.231 96.492 100.431c15.754 15.754 9.846 37.415-9.846 37.415h-303.262c-13.785 0-29.538-17.723-29.538-31.508zM472.615 518.892v303.262c0 19.692-21.662 25.6-37.415 9.846l-98.462-96.492-179.2 177.231c-9.846 9.846-27.569 9.846-37.415 0l-72.862-72.862c-9.846-9.846-9.846-25.6 0-37.415l179.2-179.2-96.492-100.431c-17.723-13.785-11.815-35.446 7.877-35.446h301.292c13.785 0 33.477 17.723 33.477 31.508z" />
<glyph unicode="&#xe935;" glyph-name="contract_alt" d="M582.892 489.354h303.262c19.692 0 25.6 21.662 9.846 37.415l-96.492 98.462 177.231 179.2c9.846 9.846 9.846 27.569 0 37.415l-72.862 72.862c-9.846 7.877-25.6 7.877-37.415-1.969l-177.231-177.231-100.431 96.492c-15.754 15.754-37.415 9.846-37.415-9.846v-303.262c0-13.785 17.723-29.538 31.508-29.538zM441.108 408.615h-303.262c-19.692 0-25.6-21.662-9.846-37.415l96.492-98.462-177.231-179.2c-9.846-9.846-9.846-27.569 0-37.415l72.862-72.862c9.846-9.846 25.6-9.846 37.415 0l179.2 179.2 100.431-96.492c13.785-17.723 35.446-11.815 35.446 7.877v301.292c0 13.785-17.723 33.477-31.508 33.477z" />
<glyph unicode="&#xe936;" glyph-name="copy" d="M866.462 920.615h-512c-43.323 0-78.769-35.446-78.769-78.769v-39.385h472.615c43.323 0 78.769-35.446 78.769-78.769v-551.385h39.385c43.323 0 78.769 35.446 78.769 78.769v590.769c0 43.323-35.446 78.769-78.769 78.769zM748.308 644.923c0 43.323-35.446 78.769-78.769 78.769h-512c-43.323 0-78.769-35.446-78.769-78.769v-590.769c0-43.323 35.446-78.769 78.769-78.769h512c43.323 0 78.769 35.446 78.769 78.769v590.769zM393.846 507.077c0-11.815-7.877-19.692-19.692-19.692h-157.538c-11.815 0-19.692 7.877-19.692 19.692v39.385c0 11.815 7.877 19.692 19.692 19.692h157.538c11.815 0 19.692-7.877 19.692-19.692v-39.385zM551.385 192c0-11.815-7.877-19.692-19.692-19.692h-315.077c-11.815 0-19.692 7.877-19.692 19.692v39.385c0 11.815 7.877 19.692 19.692 19.692h315.077c11.815 0 19.692-7.877 19.692-19.692v-39.385zM630.154 349.538c0-11.815-7.877-19.692-19.692-19.692h-393.846c-11.815 0-19.692 7.877-19.692 19.692v39.385c0 11.815 7.877 19.692 19.692 19.692h393.846c11.815 0 19.692-7.877 19.692-19.692v-39.385z" />
<glyph unicode="&#xe937;" glyph-name="copy_to_clipboard" d="M342.646 731.569h340.677c17.723 0 31.508 13.785 31.508 31.508v63.015c0 51.2-41.354 94.523-92.554 94.523h-216.615c-51.2 0-92.554-43.323-92.554-94.523v-63.015c-1.969-17.723 11.815-31.508 29.538-31.508zM852.677 841.846h-31.508c-9.846 0-15.754-5.908-15.754-15.754v-63.015c0-68.923-55.138-126.031-124.062-126.031h-338.708c-68.923 0-124.062 57.108-124.062 126.031v63.015c0 9.846-5.908 15.754-15.754 15.754h-31.508c-51.2 0-92.554-43.323-92.554-94.523v-677.415c0-51.2 41.354-94.523 92.554-94.523h681.354c51.2 0 92.554 43.323 92.554 94.523v677.415c0 51.2-41.354 94.523-92.554 94.523z" />
<glyph unicode="&#xe938;" glyph-name="crossfilter" d="M689.231 782.769c-33.477 0-64.985-3.938-94.523-13.785 35.446-29.538 66.954-64.985 92.554-104.369h1.969c120.123 0 216.615-96.492 216.615-216.615s-96.492-216.615-216.615-216.615c-29.538 0-59.077 5.908-84.677 17.723 15.754 21.662 29.538 45.292 39.385 68.923 3.938 9.846 7.877 17.723 9.846 27.569 9.846 31.508 15.754 66.954 15.754 102.4 0 185.108-149.662 334.769-334.769 334.769s-334.769-149.662-334.769-334.769 149.662-334.769 334.769-334.769c33.477 0 64.985 3.938 94.523 13.785-35.446 29.538-66.954 64.985-92.554 104.369h-1.969c-120.123 0-216.615 96.492-216.615 216.615s96.492 216.615 216.615 216.615c29.538 0 59.077-5.908 86.646-17.723-41.354-55.138-66.954-124.062-66.954-198.892 0-185.108 149.662-334.769 334.769-334.769s334.769 149.662 334.769 334.769-149.662 334.769-334.769 334.769z" />
<glyph unicode="&#xe939;" glyph-name="custom_apps" d="M972.8 719.754c-3.938 11.815-17.723 13.785-27.569 5.908l-159.508-159.508c-11.815-11.815-31.508-11.815-43.323 0l-112.246 112.246c-11.815 11.815-11.815 31.508 0 43.323l161.477 159.508c7.877 7.877 3.938 21.662-5.908 27.569-27.569 7.877-57.108 11.815-84.677 11.815-167.385 0-301.292-143.754-281.6-315.077 3.938-27.569 9.846-51.2 19.692-74.831l-368.246-366.277c-43.323-43.323-43.323-114.215 0-155.569 21.662-21.662 51.2-33.477 78.769-33.477s57.108 11.815 78.769 33.477l366.277 366.277c23.631-9.846 49.231-15.754 74.831-19.692 171.323-19.692 315.077 114.215 315.077 281.6 0 29.538-3.938 57.108-11.815 82.708z" />
<glyph unicode="&#xe93a;" glyph-name="cut" d="M801.477 341.662c-33.477 7.877-64.985 3.938-92.554-5.908l-435.2 576.985c-5.908 7.877-19.692 9.846-27.569 3.938l-15.754-11.815c-33.477-25.6-39.385-74.831-13.785-110.277l208.738-275.692c7.877-9.846 7.877-25.6 0-35.446l-112.246-147.692c-27.569 9.846-61.046 11.815-92.554 5.908-72.862-15.754-129.969-74.831-139.815-147.692-15.754-116.185 86.646-216.615 206.769-196.923 70.892 11.815 128 66.954 143.754 135.877 9.846 49.231 0 94.523-23.631 128l82.708 110.277c11.815 15.754 35.446 15.754 47.262 0l82.708-110.277c-23.631-37.415-33.477-82.708-23.631-128 13.785-70.892 72.862-124.062 143.754-135.877 120.123-19.692 222.523 80.738 206.769 196.923-17.723 74.831-74.831 133.908-145.723 147.692zM254.031 111.262c-33.477 0-59.077 25.6-59.077 59.077s25.6 59.077 59.077 59.077 59.077-25.6 59.077-59.077-25.6-59.077-59.077-59.077zM766.031 111.262c-33.477 0-59.077 25.6-59.077 59.077s25.6 59.077 59.077 59.077 59.077-25.6 59.077-59.077c-1.969-33.477-27.569-59.077-59.077-59.077zM616.369 587.815c7.877-9.846 23.631-9.846 31.508 0l157.538 206.769c21.662 29.538 19.692 68.923-1.969 96.492v0c-3.938 5.908-29.538 25.6-29.538 25.6-7.877 5.908-21.662 3.938-27.569-3.938l-173.292-230.4c-7.877-9.846-7.877-25.6 0-35.446l43.323-59.077z" />
<glyph unicode="&#xe93b;" glyph-name="dash" d="M984.615 418.462c0-15.754-13.785-29.538-29.538-29.538h-886.154c-15.754 0-29.538 13.785-29.538 29.538v59.077c0 15.754 13.785 29.538 29.538 29.538h886.154c15.754 0 29.538-13.785 29.538-29.538v-59.077z" />
<glyph unicode="&#xe93c;" glyph-name="database" d="M894.031 782.769c0 74.831-171.323 135.877-382.031 135.877s-382.031-61.046-382.031-135.877v-47.262c0-74.831 171.323-135.877 382.031-135.877s382.031 61.046 382.031 135.877v47.262zM129.969 625.231c0-59.077 171.323-106.338 382.031-106.338s382.031 47.262 382.031 106.338v-96.492c0-74.831-171.323-135.877-382.031-135.877s-382.031 61.046-382.031 135.877v96.492zM129.969 625.231c0-59.077 171.323-106.338 382.031-106.338s382.031 47.262 382.031 106.338v-96.492c0-74.831-171.323-135.877-382.031-135.877s-382.031 61.046-382.031 135.877v96.492zM129.969 418.462c0-59.077 171.323-106.338 382.031-106.338s382.031 47.262 382.031 106.338v-96.492c0-74.831-171.323-135.877-382.031-135.877s-382.031 59.077-382.031 133.908v98.462zM129.969 209.723c0-59.077 171.323-106.338 382.031-106.338s382.031 47.262 382.031 106.338v-96.492c0-74.831-171.323-135.877-382.031-135.877s-382.031 61.046-382.031 135.877v96.492z" />
<glyph unicode="&#xe93d;" glyph-name="datadotcom" d="M836.923-6.892h-104.369c-5.908 37.415-9.846 70.892-9.846 100.431h-1.969c-49.231-78.769-129.969-118.154-240.246-118.154-94.523 0-167.385 31.508-218.585 96.492s-74.831 149.662-74.831 252.062c0 66.954 11.815 126.031 37.415 179.2s61.046 96.492 108.308 126.031c47.262 31.508 102.4 47.262 165.415 47.262 90.585 0 163.446-29.538 218.585-86.646v328.862h110.277v-779.815c0-47.262 3.938-96.492 9.846-145.723zM714.831 278.646v210.708c-25.6 33.477-55.138 57.108-88.615 74.831-33.477 15.754-70.892 23.631-114.215 23.631-64.985 0-116.185-23.631-153.6-72.862s-55.138-112.246-55.138-189.046c0-80.738 17.723-143.754 53.169-191.015s86.646-70.892 149.662-70.892c63.015 0 114.215 19.692 151.631 61.046 39.385 39.385 57.108 90.585 57.108 153.6z" />
<glyph unicode="&#xe93e;" glyph-name="dayview" d="M866.462 822.154h-98.462v39.385c0 31.508-25.6 59.077-59.077 59.077-31.508 0-59.077-25.6-59.077-59.077v-39.385h-275.692v39.385c0 31.508-25.6 59.077-59.077 59.077-31.508 0-59.077-25.6-59.077-59.077v-39.385h-98.462c-43.323 0-78.769-35.446-78.769-78.769v-49.231c0-15.754 13.785-29.538 29.538-29.538h807.385c15.754 0 29.538 13.785 29.538 29.538v49.231c0 43.323-35.446 78.769-78.769 78.769zM915.692 566.154h-807.385c-15.754 0-29.538-13.785-29.538-29.538v-482.462c0-43.323 35.446-78.769 78.769-78.769h708.923c43.323 0 78.769 35.446 78.769 78.769v482.462c0 15.754-13.785 29.538-29.538 29.538zM571.077 132.923v-3.938c0-15.754-19.692-35.446-39.385-35.446s-39.385 19.692-39.385 39.385v196.923l-29.538-31.508c-5.908-5.908-11.815-7.877-19.692-7.877-15.754 0-29.538 13.785-29.538 29.538 0 7.877 3.938 15.754 9.846 21.662l76.8 76.8c7.877 7.877 17.723 11.815 29.538 11.815 21.662 0 41.354-17.723 41.354-39.385v-257.969z" />
<glyph unicode="&#xe93f;" glyph-name="delete" d="M896 763.077h-246.154v78.769c0 43.323-35.446 78.769-78.769 78.769h-118.154c-43.323 0-78.769-35.446-78.769-78.769v-78.769h-246.154c-15.754 0-29.538-13.785-29.538-29.538v-59.077c0-15.754 13.785-29.538 29.538-29.538h768c15.754 0 29.538 13.785 29.538 29.538v59.077c0 15.754-13.785 29.538-29.538 29.538zM452.923 822.154c0 11.815 7.877 19.692 19.692 19.692h78.769c11.815 0 19.692-7.877 19.692-19.692v-59.077h-118.154v59.077zM817.231 566.154h-610.462c-15.754 0-29.538-13.785-29.538-29.538v-462.769c0-55.138 43.323-98.462 98.462-98.462h472.615c55.138 0 98.462 43.323 98.462 98.462v462.769c0 15.754-13.785 29.538-29.538 29.538zM452.923 132.923c0-11.815-7.877-19.692-19.692-19.692h-39.385c-11.815 0-19.692 7.877-19.692 19.692v275.692c0 11.815 7.877 19.692 19.692 19.692h39.385c11.815 0 19.692-7.877 19.692-19.692v-275.692zM649.846 132.923c0-11.815-7.877-19.692-19.692-19.692h-39.385c-11.815 0-19.692 7.877-19.692 19.692v275.692c0 11.815 7.877 19.692 19.692 19.692h39.385c11.815 0 19.692-7.877 19.692-19.692v-275.692z" />
<glyph unicode="&#xe940;" glyph-name="deprecate" d="M945.231 822.154h-866.462c-21.662 0-39.385-17.723-39.385-39.385v-512c0-21.662 17.723-39.385 39.385-39.385h319.015c19.692-112.246 116.185-196.923 232.369-196.923s214.646 84.677 232.369 196.923h82.708c21.662 0 39.385 17.723 39.385 39.385v512c0 21.662-17.723 39.385-39.385 39.385zM775.877 180.185l-55.138-55.138-90.585 90.585-90.585-90.585-55.138 55.138 90.585 90.585-90.585 90.585 55.138 55.138 90.585-90.585 90.585 90.585 55.138-55.138-90.585-90.585 90.585-90.585zM905.846 310.154h-43.323c-19.692 112.246-116.185 196.923-232.369 196.923s-214.646-84.677-232.369-196.923h-279.631v433.231h787.692v-433.231z" />
<glyph unicode="&#xe941;" glyph-name="description" d="M866.462 881.231h-708.923c-43.323 0-78.769-35.446-78.769-78.769v-708.923c0-43.323 35.446-78.769 78.769-78.769h708.923c43.323 0 78.769 35.446 78.769 78.769v708.923c0 43.323-35.446 78.769-78.769 78.769zM236.308 684.308c0 11.815 7.877 19.692 19.692 19.692h196.923c11.815 0 19.692-7.877 19.692-19.692v-196.923c0-11.815-7.877-19.692-19.692-19.692h-196.923c-11.815 0-19.692 7.877-19.692 19.692v196.923zM708.923 172.308c0-11.815-7.877-19.692-19.692-19.692h-433.231c-11.815 0-19.692 7.877-19.692 19.692v39.385c0 11.815 7.877 19.692 19.692 19.692h433.231c11.815 0 19.692-7.877 19.692-19.692v-39.385zM787.692 329.846c0-11.815-7.877-19.692-19.692-19.692h-512c-11.815 0-19.692 7.877-19.692 19.692v39.385c0 11.815 7.877 19.692 19.692 19.692h512c11.815 0 19.692-7.877 19.692-19.692v-39.385zM787.692 487.385c0-11.815-7.877-19.692-19.692-19.692h-196.923c-11.815 0-19.692 7.877-19.692 19.692v39.385c0 11.815 7.877 19.692 19.692 19.692h196.923c11.815 0 19.692-7.877 19.692-19.692v-39.385zM787.692 644.923c0-11.815-7.877-19.692-19.692-19.692h-196.923c-11.815 0-19.692 7.877-19.692 19.692v39.385c0 11.815 7.877 19.692 19.692 19.692h196.923c11.815 0 19.692-7.877 19.692-19.692v-39.385z" />
<glyph unicode="&#xe942;" glyph-name="desktop" d="M984.615 841.846c0 43.323-35.446 78.769-78.769 78.769h-787.692c-43.323 0-78.769-35.446-78.769-78.769v-512c0-43.323 35.446-78.769 78.769-78.769h787.692c43.323 0 78.769 35.446 78.769 78.769v512zM866.462 398.769c0-15.754-13.785-29.538-29.538-29.538h-649.846c-15.754 0-29.538 13.785-29.538 29.538v374.154c0 15.754 13.785 29.538 29.538 29.538h649.846c15.754 0 29.538-13.785 29.538-29.538v-374.154zM649.846 93.538h-59.077c-11.815 0-19.692 7.877-19.692 19.692v39.385c0 11.815-7.877 19.692-19.692 19.692h-78.769c-11.815 0-19.692-7.877-19.692-19.692v-39.385c0-11.815-7.877-19.692-19.692-19.692h-59.077c-43.323 0-78.769-35.446-78.769-78.769v-9.846c0-15.754 13.785-29.538 29.538-29.538h374.154c15.754 0 29.538 13.785 29.538 29.538v9.846c0 43.323-35.446 78.769-78.769 78.769z" />
<glyph unicode="&#xe943;" glyph-name="dislike" d="M236.308 379.077v403.692c0 43.323-35.446 78.769-78.769 78.769h-49.231c-15.754 0-29.538-13.785-29.538-29.538v-452.923c0-15.754 13.785-29.538 29.538-29.538h98.462c15.754 0 29.538 13.785 29.538 29.538zM945.231 448v246.154c0 171.323-135.877 187.077-283.569 187.077-139.815 0-185.108-53.169-319.015-59.077-15.754 0-27.569-13.785-27.569-29.538v-393.846c0-15.754 13.785-29.538 29.538-29.538 94.523 0 167.385-102.4 167.385-206.769v-118.154c0-15.754 13.785-29.538 29.538-29.538h49.231c43.323 0 78.769 35.446 78.769 78.769v196.923c0 43.323 35.446 78.769 78.769 78.769h118.154c43.323 0 78.769 35.446 78.769 78.769z" />
<glyph unicode="&#xe944;" glyph-name="dock_panel" d="M37.415 270.769v512c0 76.8 61.046 137.846 137.846 137.846h512c76.8 0 137.846-61.046 137.846-137.846v-59.077h-118.154v59.077c0 11.815-7.877 19.692-19.692 19.692h-512c-11.815 0-19.692-7.877-19.692-19.692v-512c0-11.815 7.877-19.692 19.692-19.692h59.077v-118.154h-59.077c-76.8 0-137.846 61.046-137.846 137.846zM903.877 644.923h-512c-43.323 0-78.769-35.446-78.769-78.769v-512c0-43.323 35.446-78.769 78.769-78.769h512c43.323 0 78.769 35.446 78.769 78.769v512c0 43.323-35.446 78.769-78.769 78.769zM825.108 148.677c0-9.846-5.908-15.754-17.723-15.754h-228.431c-9.846 0-19.692 9.846-19.692 17.723v35.446c0 9.846 9.846 19.692 19.692 19.692h94.523c11.815 0 15.754 11.815 9.846 19.692l-204.8 204.8c-7.877 5.908-7.877 17.723 0 25.6l25.6 23.631c5.908 7.877 17.723 7.877 23.631 0l204.8-204.8c7.877-7.877 19.692-1.969 19.692 9.846v94.523c0 11.815 11.815 19.692 21.662 19.692h35.446c9.846 0 15.754-9.846 15.754-19.692v-230.4z" />
<glyph unicode="&#xe945;" glyph-name="down" d="M163.446 684.308h697.108c19.692 0 33.477-25.6 17.723-43.323l-340.677-417.477c-11.815-15.754-37.415-15.754-49.231 0l-344.615 417.477c-13.785 17.723-1.969 43.323 19.692 43.323z" />
<glyph unicode="&#xe946;" glyph-name="download" d="M955.077 349.538h-59.077c-15.754 0-29.538-13.785-29.538-29.538v-196.923c0-15.754-13.785-29.538-29.538-29.538h-649.846c-15.754 0-29.538 13.785-29.538 29.538v196.923c0 15.754-13.785 29.538-29.538 29.538h-59.077c-15.754 0-29.538-13.785-29.538-29.538v-265.846c0-43.323 35.446-78.769 78.769-78.769h787.692c43.323 0 78.769 35.446 78.769 78.769v265.846c0 15.754-13.785 29.538-29.538 29.538zM492.308 219.569c11.815-11.815 29.538-11.815 41.354 0l265.846 265.846c11.815 11.815 11.815 29.538 0 41.354l-41.354 41.354c-11.815 11.815-29.538 11.815-41.354 0l-110.277-110.277c-11.815-11.815-33.477-3.938-33.477 13.785v419.446c-1.969 15.754-17.723 29.538-31.508 29.538h-59.077c-15.754 0-29.538-13.785-29.538-29.538v-417.477c0-17.723-21.662-25.6-33.477-13.785l-110.277 110.277c-11.815 11.815-29.538 11.815-41.354 0l-41.354-43.323c-11.815-11.815-11.815-29.538 0-41.354l265.846-265.846z" />
<glyph unicode="&#xe947;" glyph-name="edit" d="M187.077 302.277l175.262-175.262c7.877-7.877 19.692-7.877 27.569 0l437.169 439.138c7.877 7.877 7.877 19.692 0 27.569l-173.292 173.292c-7.877 7.877-19.692 7.877-27.569 0l-439.138-439.138c-7.877-7.877-7.877-19.692 0-25.6zM710.892 847.754c-7.877-7.877-7.877-19.692 0-27.569l173.292-173.292c7.877-7.877 19.692-7.877 27.569 0l49.231 49.231c31.508 29.538 31.508 76.8 0 108.308l-92.554 92.554c-31.508 31.508-80.738 31.508-112.246 0l-45.292-49.231zM41.354 10.831c-3.938-19.692 13.785-37.415 33.477-33.477l214.646 51.2c7.877 1.969 13.785 5.908 17.723 9.846l3.938 3.938c3.938 3.938 5.908 17.723-1.969 25.6l-177.231 177.231c-7.877 7.877-21.662 5.908-25.6 1.969l-3.938-3.938c-5.908-5.908-7.877-11.815-9.846-17.723l-51.2-214.646z" />
<glyph unicode="&#xe948;" glyph-name="edit_form" d="M618.338 658.708h161.477c11.815 0 21.662 9.846 21.662 21.662 0 5.908-1.969 9.846-5.908 15.754l-200.862 198.892c-5.908 3.938-9.846 5.908-15.754 5.908-11.815 0-21.662-9.846-21.662-21.662v-159.508c0-33.477 27.569-61.046 61.046-61.046zM974.769 453.908l-17.723 17.723c-11.815 11.815-29.538 11.815-43.323 0l-234.338-234.338c-1.969-1.969 0-3.938 0-5.908v-49.231c0-3.938 0-7.877 3.938-7.877h51.2c1.969 0 3.938 1.969 5.908 1.969l234.338 232.369c13.785 15.754 13.785 33.477 0 45.292zM785.723 85.662h-139.815c-31.508 0-57.108 25.6-57.108 57.108v106.338c0 15.754 3.938 31.508 17.723 41.354l187.077 187.077c5.908 5.908 9.846 13.785 9.846 21.662v39.385c0 15.754-13.785 29.538-29.538 29.538h-216.615c-51.2 0-90.585 41.354-90.585 90.585v212.677c0 15.754-13.785 29.538-31.508 29.538h-305.231c-49.231 0-90.585-41.354-90.585-90.585v-724.677c0-49.231 41.354-90.585 90.585-90.585h578.954c43.323 0 82.708 31.508 90.585 72.862 1.969 7.877-5.908 17.723-13.785 17.723zM161.477 629.169c0 15.754 13.785 29.538 29.538 29.538h122.092c17.723 0 29.538-13.785 29.538-29.538v-29.538c0-15.754-13.785-29.538-29.538-29.538h-122.092c-17.723 0-29.538 13.785-29.538 29.538v29.538zM466.708 237.292c0-15.754-13.785-29.538-29.538-29.538h-246.154c-17.723 0-29.538 13.785-29.538 29.538v29.538c0 15.754 13.785 29.538 29.538 29.538h244.185c17.723 0 29.538-13.785 29.538-29.538v-29.538zM527.754 418.462c0-15.754-13.785-29.538-29.538-29.538h-307.2c-17.723 0-29.538 13.785-29.538 29.538v29.538c0 15.754 13.785 29.538 29.538 29.538h305.231c17.723 0 29.538-13.785 29.538-29.538v-29.538z" />
<glyph unicode="&#xe949;" glyph-name="email" d="M490.338 367.262c11.815-11.815 29.538-11.815 41.354 0l445.046 413.538c7.877 15.754 5.908 41.354-25.6 41.354l-880.246-1.969c-23.631 0-43.323-21.662-25.6-41.354l445.046-411.569zM984.615 619.323c0 19.692-23.631 31.508-39.385 17.723l-348.554-320.985c-23.631-21.662-53.169-33.477-84.677-33.477s-61.046 11.815-84.677 31.508l-346.585 322.954c-15.754 13.785-39.385 3.938-39.385-17.723-1.969 5.908-1.969-447.015-1.969-447.015 0-43.323 35.446-78.769 78.769-78.769h787.692c43.323 0 78.769 35.446 78.769 78.769v447.015z" />
<glyph unicode="&#xe94a;" glyph-name="emoji" d="M986.585 448c0-261.908-212.677-474.585-474.585-474.585s-474.585 212.677-474.585 474.585 212.677 474.585 474.585 474.585 474.585-212.677 474.585-474.585zM360.369 648.862c-47.262 0-84.677-37.415-84.677-84.677s37.415-84.677 84.677-84.677 84.677 37.415 84.677 84.677-37.415 84.677-84.677 84.677zM665.6 648.862c-47.262 0-84.677-37.415-84.677-84.677s37.415-84.677 84.677-84.677 84.677 37.415 84.677 84.677-37.415 84.677-84.677 84.677zM661.662 320c-39.385-35.446-92.554-55.138-149.662-55.138-55.138 0-106.338 19.692-147.692 53.169l-17.723 15.754c-5.908 3.938-9.846 5.908-21.662 5.908-21.662 0-37.415-17.723-37.415-37.415 0-9.846 3.938-19.692 11.815-27.569l13.785-11.815c53.169-47.262 124.062-74.831 198.892-74.831 76.8 0 147.692 29.538 200.862 76.8l9.846 9.846c7.877 7.877 11.815 17.723 11.815 27.569 0 21.662-17.723 37.415-37.415 37.415-9.846 0-17.723-3.938-23.631-7.877l-11.815-11.815z" />
<glyph unicode="&#xe94b;" glyph-name="end_call" d="M955.077 849.723l-41.354 41.354c-11.815 11.815-33.477 9.846-47.262-5.908l-462.769-462.769-98.462 110.277c-11.815 11.815-11.815 27.569-3.938 41.354l74.831 102.4c21.662 27.569 19.692 66.954-1.969 94.523l-96.492 120.123c-29.538 35.446-82.708 39.385-116.185 5.908l-102.4-102.4c-15.754-15.754-23.631-37.415-23.631-59.077 9.846-181.169 82.708-354.462 196.923-484.431l-157.538-157.538c-13.785-13.785-15.754-35.446-5.908-47.262l41.354-41.354c11.815-11.815 33.477-9.846 47.262 5.908l791.631 791.631c15.754 13.785 17.723 35.446 5.908 47.262zM955.077 213.662l-120.123 96.492c-27.569 21.662-66.954 23.631-94.523 1.969l-102.4-74.831c-11.815-9.846-29.538-7.877-41.354 3.938l-47.262 43.323-167.385-167.385c120.123-80.738 263.877-133.908 413.538-141.785 21.662-1.969 43.323 7.877 59.077 23.631l102.4 102.4c37.415 29.538 35.446 84.677-1.969 112.246z" />
<glyph unicode="&#xe94c;" glyph-name="end_chat" d="M557.292 365.292c86.646 86.646 214.646 104.369 319.015 57.108 15.754 41.354 23.631 84.677 23.631 129.969-1.969 216.615-191.015 389.908-423.385 389.908-234.338 0-419.446-173.292-419.446-385.969 0-66.954 19.692-129.969 51.2-187.077 5.908-7.877 7.877-19.692 3.938-29.538l-55.138-149.662c-5.908-13.785 7.877-25.6 23.631-23.631l151.631 57.108c7.877 3.938 19.692 1.969 29.538-3.938 61.046-33.477 133.908-55.138 212.677-55.138-1.969 74.831 27.569 145.723 82.708 200.862zM689.231 625.231c39.385 0 70.892-31.508 70.892-70.892s-31.508-70.892-70.892-70.892-70.892 31.508-70.892 70.892 31.508 70.892 70.892 70.892zM265.846 483.446c-39.385 0-70.892 31.508-70.892 70.892s31.508 70.892 70.892 70.892 70.892-31.508 70.892-70.892-31.508-70.892-70.892-70.892zM476.554 625.231c39.385 0 70.892-31.508 70.892-70.892s-31.508-70.892-70.892-70.892-70.892 31.508-70.892 70.892 33.477 70.892 70.892 70.892zM905.846 316.062c-82.708 82.708-216.615 82.708-299.323 0s-82.708-216.615 0-299.323 216.615-82.708 299.323 0 82.708 216.615 0 299.323zM844.8 128.985c7.877-7.877 7.877-19.692-1.969-25.6l-25.6-25.6c-7.877-7.877-15.754-7.877-23.631 1.969l-37.415 37.415-39.385-39.385c-7.877-7.877-15.754-7.877-23.631 1.969l-25.6 25.6c-7.877 7.877-7.877 15.754-1.969 23.631l39.385 39.385-37.415 39.385c-7.877 7.877-7.877 15.754-1.969 23.631l25.6 25.6c7.877 7.877 19.692 7.877 25.6 1.969l37.415-37.415 37.415 37.415c7.877 7.877 19.692 7.877 25.6 1.969l25.6-25.6c7.877-7.877 7.877-19.692-1.969-25.6l-37.415-37.415 41.354-43.323z" />
<glyph unicode="&#xe94d;" glyph-name="erect_window" d="M984.615 832c0-15.754-13.785-29.538-29.538-29.538h-886.154c-15.754 0-29.538 13.785-29.538 29.538v59.077c0 15.754 13.785 29.538 29.538 29.538h886.154c15.754 0 29.538-13.785 29.538-29.538v-59.077z" />
<glyph unicode="&#xe94e;" glyph-name="error" d="M512 920.615c-259.938 0-472.615-212.677-472.615-472.615s212.677-472.615 472.615-472.615 472.615 212.677 472.615 472.615-212.677 472.615-472.615 472.615zM746.338 414.523c-1.969-13.785-13.785-25.6-29.538-25.6h-409.6c-15.754 0-27.569 9.846-29.538 25.6-1.969 23.631-1.969 45.292 0 66.954 1.969 13.785 13.785 25.6 29.538 25.6h409.6c15.754 0 27.569-11.815 29.538-25.6 1.969-23.631 1.969-45.292 0-66.954z" />
<glyph unicode="&#xe94f;" glyph-name="event" d="M915.692 566.154h-807.385c-15.754 0-29.538-13.785-29.538-29.538v-482.462c0-43.323 35.446-78.769 78.769-78.769h708.923c43.323 0 78.769 35.446 78.769 78.769v482.462c0 15.754-13.785 29.538-29.538 29.538zM374.154 132.923c0-11.815-7.877-19.692-19.692-19.692h-78.769c-11.815 0-19.692 7.877-19.692 19.692v78.769c0 11.815 7.877 19.692 19.692 19.692h78.769c11.815 0 19.692-7.877 19.692-19.692v-78.769zM374.154 329.846c0-11.815-7.877-19.692-19.692-19.692h-78.769c-11.815 0-19.692 7.877-19.692 19.692v78.769c0 11.815 7.877 19.692 19.692 19.692h78.769c11.815 0 19.692-7.877 19.692-19.692v-78.769zM571.077 132.923c0-11.815-7.877-19.692-19.692-19.692h-78.769c-11.815 0-19.692 7.877-19.692 19.692v78.769c0 11.815 7.877 19.692 19.692 19.692h78.769c11.815 0 19.692-7.877 19.692-19.692v-78.769zM571.077 329.846c0-11.815-7.877-19.692-19.692-19.692h-78.769c-11.815 0-19.692 7.877-19.692 19.692v78.769c0 11.815 7.877 19.692 19.692 19.692h78.769c11.815 0 19.692-7.877 19.692-19.692v-78.769zM768 132.923c0-11.815-7.877-19.692-19.692-19.692h-78.769c-11.815 0-19.692 7.877-19.692 19.692v78.769c0 11.815 7.877 19.692 19.692 19.692h78.769c11.815 0 19.692-7.877 19.692-19.692v-78.769zM768 329.846c0-11.815-7.877-19.692-19.692-19.692h-78.769c-11.815 0-19.692 7.877-19.692 19.692v78.769c0 11.815 7.877 19.692 19.692 19.692h78.769c11.815 0 19.692-7.877 19.692-19.692v-78.769zM866.462 822.154h-98.462v39.385c0 31.508-25.6 59.077-59.077 59.077-31.508 0-59.077-25.6-59.077-59.077v-39.385h-275.692v39.385c0 31.508-25.6 59.077-59.077 59.077-31.508 0-59.077-25.6-59.077-59.077v-39.385h-98.462c-43.323 0-78.769-35.446-78.769-78.769v-49.231c0-15.754 13.785-29.538 29.538-29.538h807.385c15.754 0 29.538 13.785 29.538 29.538v49.231c0 43.323-35.446 78.769-78.769 78.769z" />
<glyph unicode="&#xe950;" glyph-name="expand" d="M960.985 920.615h-305.231c-19.692 0-25.6-17.723-9.846-33.477l96.492-96.492-177.231-177.231c-9.846-9.846-9.846-25.6 0-37.415l72.862-72.862c9.846-9.846 25.6-9.846 37.415 0l179.2 179.2 96.492-96.492c15.754-15.754 33.477-9.846 33.477 9.846v303.262c0 11.815-11.815 21.662-23.631 21.662zM68.923-24.615h303.262c19.692 0 25.6 21.662 9.846 37.415l-96.492 98.462 177.231 179.2c9.846 9.846 9.846 27.569 0 37.415l-72.862 72.862c-9.846 9.846-25.6 9.846-37.415 0l-177.231-177.231-98.462 96.492c-17.723 15.754-37.415 9.846-37.415-9.846v-303.262c0-13.785 15.754-31.508 29.538-31.508zM984.615-0.985v305.231c0 19.692-17.723 25.6-33.477 9.846l-96.492-96.492-177.231 177.231c-9.846 9.846-25.6 9.846-37.415 0l-72.862-72.862c-9.846-9.846-9.846-25.6 0-37.415l179.2-179.2-96.492-96.492c-15.754-15.754-9.846-33.477 9.846-33.477h303.262c11.815 0 21.662 11.815 21.662 23.631zM39.385 891.077v-303.262c0-19.692 21.662-25.6 37.415-9.846l98.462 96.492 179.2-177.231c9.846-9.846 27.569-9.846 37.415 0l72.862 72.862c9.846 9.846 9.846 25.6 0 37.415l-177.231 177.231 96.492 98.462c15.754 17.723 9.846 37.415-9.846 37.415h-303.262c-13.785 0-31.508-15.754-31.508-29.538z" />
<glyph unicode="&#xe951;" glyph-name="expand_all" d="M945.231 772.923c0 15.754-13.785 29.538-29.538 29.538h-807.385c-15.754 0-29.538-13.785-29.538-29.538v-59.077c0-15.754 13.785-29.538 29.538-29.538h807.385c15.754 0 29.538 13.785 29.538 29.538v59.077zM945.231 182.154c0 15.754-13.785 29.538-29.538 29.538h-807.385c-15.754 0-29.538-13.785-29.538-29.538v-59.077c0-15.754 13.785-29.538 29.538-29.538h807.385c15.754 0 29.538 13.785 29.538 29.538v59.077zM590.769 388.923h88.615c15.754 0 29.538 13.785 29.538 29.538v59.077c0 15.754-13.785 29.538-29.538 29.538h-88.615c-11.815 0-19.692 7.877-19.692 19.692v88.615c0 15.754-13.785 29.538-29.538 29.538h-59.077c-15.754 0-29.538-13.785-29.538-29.538v-88.615c0-11.815-7.877-19.692-19.692-19.692h-88.615c-15.754 0-29.538-13.785-29.538-29.538v-59.077c0-15.754 13.785-29.538 29.538-29.538h88.615c11.815 0 19.692-7.877 19.692-19.692v-88.615c0-15.754 13.785-29.538 29.538-29.538h59.077c15.754 0 29.538 13.785 29.538 29.538v88.615c0 11.815 7.877 19.692 19.692 19.692z" />
<glyph unicode="&#xe952;" glyph-name="expand_alt" d="M960.985 920.615h-305.231c-19.692 0-25.6-17.723-9.846-33.477l96.492-96.492-177.231-177.231c-9.846-9.846-9.846-25.6 0-37.415l72.862-72.862c9.846-9.846 25.6-9.846 37.415 0l179.2 179.2 96.492-96.492c15.754-15.754 33.477-9.846 33.477 9.846v303.262c0 11.815-11.815 21.662-23.631 21.662zM68.923-24.615h303.262c19.692 0 25.6 21.662 9.846 37.415l-96.492 98.462 177.231 179.2c9.846 9.846 9.846 27.569 0 37.415l-72.862 72.862c-9.846 9.846-25.6 9.846-37.415 0l-177.231-177.231-98.462 96.492c-17.723 15.754-37.415 9.846-37.415-9.846v-303.262c0-13.785 15.754-31.508 29.538-31.508z" />
<glyph unicode="&#xe953;" glyph-name="fallback" d="M551.385 891.077l-59.077-287.508c0-11.815 7.877-17.723 17.723-17.723h307.2c21.662 0 35.446-25.6 25.6-45.292l-334.769-549.415c-13.785-27.569-55.138-17.723-55.138 13.785l59.077 338.708c0 11.815-9.846 7.877-21.662 7.877h-322.954c-21.662 0-37.415 31.508-25.6 51.2l354.462 502.154c13.785 25.6 55.138 17.723 55.138-13.785z" />
<glyph unicode="&#xe954;" glyph-name="favorite" d="M539.569 898.954l90.585-295.385c3.938-11.815 15.754-17.723 27.569-17.723h295.385c29.538 0 41.354-39.385 17.723-57.108l-240.246-177.231c-9.846-7.877-13.785-21.662-9.846-33.477l114.215-303.262c7.877-27.569-21.662-51.2-45.292-33.477l-257.969 192.985c-9.846 7.877-23.631 7.877-35.446 0l-259.938-192.985c-23.631-17.723-55.138 5.908-45.292 33.477l110.277 303.262c3.938 11.815 0 25.6-9.846 33.477l-240.246 177.231c-23.631 17.723-9.846 57.108 17.723 57.108h295.385c13.785 0 23.631 3.938 27.569 17.723l92.554 297.354c7.877 27.569 47.262 25.6 55.138-1.969z" />
<glyph unicode="&#xe955;" glyph-name="feed" d="M496.246 113.231c-5.908 0-13.785 1.969-21.662 5.908-11.815 5.908-21.662 19.692-23.631 31.508l-112.246 454.892-96.492-216.615c-5.908-17.723-21.662-27.569-39.385-27.569h-133.908c-15.754 0-29.538 11.815-29.538 27.569v29.538c0 15.754 13.785 29.538 29.538 29.538h102.4l135.877 309.169c7.877 15.754 25.6 27.569 45.292 25.6s35.446-13.785 39.385-33.477l116.185-460.8 155.569 336.738c7.877 17.723 25.6 27.569 43.323 25.6 15.754-1.969 31.508-13.785 39.385-29.538l76.8-175.262h133.908c15.754 0 29.538-13.785 29.538-29.538v-27.569c0-15.754-13.785-29.538-29.538-29.538h-161.477c-17.723 0-33.477 9.846-41.354 25.6l-49.231 112.246-165.415-360.369c-9.846-13.785-23.631-23.631-43.323-23.631z" />
<glyph unicode="&#xe956;" glyph-name="file" d="M191.015 249.108v488.369c-51.2 0-92.554-41.354-92.554-90.585v-578.954c0-51.2 41.354-92.554 92.554-92.554h458.831c51.2 0 92.554 41.354 92.554 90.585h-368.246c-100.431 0-183.138 0-183.138 183.138zM894.031 646.892h-153.6c-51.2 0-92.554 41.354-92.554 90.585v153.6c1.969 15.754-11.815 29.538-29.538 29.538h-244.185c-51.2 0-92.554-41.354-92.554-90.585v-578.954c0-51.2 41.354-90.585 92.554-90.585h458.831c51.2 0 92.554 41.354 92.554 90.585v364.308c0 17.723-13.785 31.508-31.508 31.508zM919.631 774.892l-141.785 139.815c-3.938 3.938-7.877 5.908-13.785 5.908-11.815 0-21.662-9.846-21.662-21.662v-100.431c0-33.477 27.569-61.046 61.046-61.046h100.431c11.815 0 21.662 9.846 21.662 21.662 0 5.908-1.969 9.846-5.908 15.754z" />
<glyph unicode="&#xe957;" glyph-name="filter" d="M480.492 333.785c-11.815 11.815-29.538 11.815-41.354 0l-70.892-70.892c-11.815-11.815-33.477-3.938-33.477 13.785v259.938c0 15.754-13.785 29.538-29.538 29.538h-59.077c-15.754 0-29.538-13.785-29.538-29.538v-259.938c0-17.723-21.662-25.6-33.477-13.785l-70.892 70.892c-11.815 11.815-29.538 11.815-41.354 0l-43.323-43.323c-11.815-11.815-11.815-29.538 0-41.354l226.462-226.462c11.815-11.815 29.538-11.815 41.354 0l228.431 228.431c11.815 11.815 11.815 29.538 0 41.354l-43.323 41.354zM1004.308 772.923c0 15.754-13.785 29.538-29.538 29.538h-728.615c-15.754 0-29.538-13.785-29.538-29.538v-59.077c0-15.754 13.785-29.538 29.538-29.538h728.615c15.754 0 29.538 13.785 29.538 29.538v59.077zM1004.308 536.615c0 15.754-13.785 29.538-29.538 29.538h-531.692c-15.754 0-29.538-13.785-29.538-29.538v-59.077c0-15.754 13.785-29.538 29.538-29.538h531.692c15.754 0 29.538 13.785 29.538 29.538v59.077zM1004.308 300.308c0 15.754-13.785 29.538-29.538 29.538h-334.769c-15.754 0-29.538-13.785-29.538-29.538v-59.077c0-15.754 13.785-29.538 29.538-29.538h334.769c15.754 0 29.538 13.785 29.538 29.538v59.077z" />
<glyph unicode="&#xe958;" glyph-name="filterList" d="M951.138 881.231h-874.338c-29.538 0-43.323-33.477-25.6-55.138l382.031-447.015c11.815-13.785 17.723-33.477 17.723-51.2v-283.569c0-15.754 15.754-29.538 31.508-29.538h59.077c15.754 0 27.569 13.785 27.569 29.538v283.569c0 19.692 7.877 37.415 21.662 51.2l385.969 447.015c17.723 21.662 3.938 55.138-25.6 55.138z" />
<glyph unicode="&#xe959;" glyph-name="flow" d="M982.646 751.262c-41.354 80.738-145.723 230.4-338.708 141.785-120.123-55.138-187.077-86.646-187.077-86.646l-173.292-74.831c-49.231-23.631-155.569 9.846-216.615 31.508-17.723 5.908-33.477-11.815-25.6-29.538 41.354-80.738 145.723-230.4 338.708-141.785 120.123 55.138 360.369 159.508 360.369 159.508 49.231 23.631 155.569-9.846 216.615-31.508 17.723-3.938 33.477 13.785 25.6 31.508zM567.138 499.2c-21.662-11.815-108.308-51.2-108.308-51.2l-86.646-37.415c-43.323-23.631-135.877 7.877-191.015 29.538-15.754 7.877-29.538-11.815-21.662-27.569 35.446-78.769 128-220.554 297.354-133.908 106.338 53.169 194.954 88.615 194.954 88.615 43.323 23.631 135.877-7.877 191.015-29.538 15.754-5.908 29.538 11.815 21.662 29.538-35.446 76.8-128 218.585-297.354 131.938zM504.123 150.646c-17.723-9.846-47.262-27.569-47.262-27.569-33.477-21.662-102.4 5.908-143.754 25.6-11.815 5.908-21.662-11.815-15.754-27.569 25.6-70.892 94.523-198.892 222.523-120.123 47.262 29.538 47.262 27.569 47.262 27.569 35.446 17.723 102.4-5.908 143.754-25.6 11.815-5.908 21.662 11.815 15.754 27.569-25.6 70.892-90.585 192.985-222.523 120.123z" />
<glyph unicode="&#xe95a;" glyph-name="food_and_drink" d="M805.415 487.385c-19.692-155.569-145.723-256-254.031-256h-236.308c-118.154 0-256 118.154-256 295.385v275.692c0 21.662 17.723 39.385 39.385 39.385h768c64.985 0 118.154-53.169 118.154-118.154v-118.154c0-64.985-53.169-118.154-118.154-118.154h-61.046zM799.508 172.308c13.785 0 27.569-13.785 27.569-27.569v-1.969c0-49.231-39.385-88.615-86.646-88.615h-614.4c-47.262 0-86.646 39.385-86.646 88.615v1.969c0 13.785 13.785 27.569 27.569 27.569h732.554zM807.385 743.385v-157.538h39.385c21.662 0 39.385 17.723 39.385 39.385v78.769c0 21.662-17.723 39.385-39.385 39.385h-39.385z" />
<glyph unicode="&#xe95b;" glyph-name="forward" d="M66.954 388.923h653.785c17.723 0 25.6-21.662 13.785-33.477l-189.046-189.046c-11.815-11.815-11.815-29.538 0-41.354l43.323-43.323c11.815-11.815 29.538-11.815 41.354 0l344.615 346.585c11.815 11.815 11.815 29.538 0 41.354l-344.615 344.615c-11.815 11.815-29.538 11.815-41.354 0l-41.354-41.354c-11.815-11.815-11.815-29.538 0-41.354l189.046-189.046c11.815-13.785 3.938-35.446-13.785-35.446h-653.785c-15.754 0-29.538-11.815-29.538-27.569v-59.077c0-15.754 11.815-31.508 27.569-31.508z" />
<glyph unicode="&#xe95c;" glyph-name="frozen" d="M531.692 900.923c11.815 0 19.692-7.877 19.692-19.692v-903.877c0-11.815-7.877-19.692-19.692-19.692h-39.385c-11.815 0-19.692 7.877-19.692 19.692v903.877c0 11.815 7.877 19.692 19.692 19.692h39.385zM512 621.292l-159.508 159.508c-7.877 7.877-7.877 19.692 0 27.569l27.569 27.569c7.877 7.877 19.692 7.877 27.569 0l104.369-104.369 104.369 104.369c7.877 7.877 19.692 7.877 27.569 0l27.569-27.569c7.877-7.877 7.877-19.692 0-27.569l-159.508-159.508zM512 237.292l159.508-159.508c7.877-7.877 7.877-19.692 0-27.569l-27.569-27.569c-7.877-7.877-19.692-7.877-27.569 0l-104.369 104.369-104.369-104.369c-7.877-7.877-19.692-7.877-27.569 0l-27.569 27.569c-7.877 7.877-7.877 19.692 0 27.569l159.508 159.508zM927.508 652.8c5.908-9.846 3.938-21.662-7.877-27.569l-777.846-458.831c-9.846-5.908-21.662-3.938-27.569 7.877l-19.692 33.477c-5.908 9.846-3.938 21.662 7.877 27.569l777.846 460.8c9.846 5.908 21.662 3.938 27.569-7.877l19.692-35.446zM677.415 526.769l55.138 218.585c1.969 11.815 11.815 17.723 23.631 13.785l37.415-9.846c11.815-1.969 17.723-11.815 13.785-23.631l-37.415-143.754 143.754-37.415c11.815-1.969 17.723-11.815 13.785-23.631l-9.846-37.415c-1.969-11.815-11.815-17.723-23.631-13.785l-216.615 57.108zM346.585 331.815l-55.138-218.585c-1.969-11.815-11.815-17.723-23.631-13.785l-37.415 9.846c-11.815 1.969-17.723 11.815-13.785 23.631l37.415 143.754-143.754 37.415c-11.815 1.969-17.723 11.815-13.785 23.631l9.846 37.415c1.969 11.815 11.815 17.723 23.631 13.785l216.615-57.108zM116.185 686.277c5.908 9.846 17.723 13.785 27.569 7.877l777.846-460.8c9.846-5.908 13.785-17.723 7.877-27.569l-19.692-33.477c-5.908-9.846-17.723-13.785-27.569-7.877l-779.815 460.8c-9.846 5.908-13.785 17.723-7.877 27.569l21.662 33.477zM346.585 526.769l-218.585-57.108c-11.815-1.969-21.662 1.969-23.631 13.785l-9.846 37.415c-1.969 11.815 1.969 21.662 13.785 23.631l143.754 37.415-37.415 143.754c-1.969 11.815 1.969 21.662 13.785 23.631l37.415 9.846c11.815 1.969 21.662-1.969 23.631-13.785l57.108-218.585zM675.446 331.815l218.585 57.108c11.815 1.969 21.662-1.969 23.631-13.785l9.846-37.415c1.969-11.815-1.969-21.662-13.785-23.631l-143.754-37.415 37.415-143.754c1.969-11.815-1.969-21.662-13.785-23.631l-37.415-9.846c-11.815-1.969-21.662 1.969-23.631 13.785l-57.108 218.585z" />
<glyph unicode="&#xe95d;" glyph-name="full_width_view" d="M955.077 881.231h-886.154c-15.754 0-29.538-13.785-29.538-29.538v-98.462c0-15.754 13.785-29.538 29.538-29.538h886.154c15.754 0 29.538 13.785 29.538 29.538v98.462c-1.969 15.754-13.785 29.538-29.538 29.538zM210.708 644.923h-137.846c-15.754 0-29.538-13.785-29.538-29.538v-586.831c0-15.754 13.785-29.538 29.538-29.538h137.846c15.754 0 29.538 13.785 29.538 29.538v586.831c0 15.754-13.785 29.538-29.538 29.538zM955.077 644.923h-137.846c-15.754 0-29.538-13.785-29.538-29.538v-586.831c0-15.754 13.785-29.538 29.538-29.538h137.846c15.754 0 29.538 13.785 29.538 29.538v586.831c0 15.754-13.785 29.538-29.538 29.538zM679.385 644.923h-330.831c-15.754 0-29.538-13.785-29.538-29.538v-586.831c0-15.754 13.785-29.538 29.538-29.538h330.831c15.754 0 29.538 13.785 29.538 29.538v586.831c0 15.754-13.785 29.538-29.538 29.538z" />
<glyph unicode="&#xe95e;" glyph-name="graph" d="M39.385 64c0-43.323 35.446-78.769 78.769-78.769h834.954c17.723 0 31.508 13.785 31.508 31.508v55.138c0 17.723-13.785 31.508-31.508 31.508h-766.031c-15.754 0-29.538 13.785-29.538 29.538v746.338c0 17.723-13.785 31.508-31.508 31.508h-55.138c-17.723 0-31.508-13.785-31.508-31.508v-815.262zM978.708 682.338c0 33.477-25.6 59.077-59.077 59.077-17.723 0-31.508-7.877-43.323-17.723l-169.354-169.354-118.154 112.246-3.938 3.938c-1.969 0-1.969 1.969-3.938 1.969-1.969 1.969-3.938 1.969-5.908 3.938-1.969 0-1.969 1.969-3.938 1.969s-3.938 1.969-7.877 1.969c-1.969 0-1.969 0-3.938 1.969-3.938 0-7.877 1.969-11.815 1.969s-7.877 0-11.815-1.969c-1.969 0-1.969 0-3.938-1.969-1.969 0-5.908-1.969-7.877-1.969s-1.969-1.969-3.938-1.969-3.938-1.969-5.908-3.938c-1.969 0-1.969-1.969-3.938-3.938s-3.938-1.969-5.908-3.938l-224.492-226.462c-11.815-11.815-19.692-25.6-19.692-43.323 0-33.477 25.6-59.077 59.077-59.077 13.785 0 27.569 5.908 37.415 13.785l192.985 191.015 112.246-110.277c1.969-1.969 3.938-1.969 5.908-3.938l3.938-3.938c1.969-1.969 3.938-1.969 5.908-3.938 1.969 0 1.969-1.969 3.938-1.969 1.969-1.969 5.908-1.969 7.877-1.969s1.969 0 3.938-1.969c3.938 0 7.877-1.969 11.815-1.969s7.877 0 11.815 1.969h3.938c1.969 0 3.938 1.969 7.877 1.969 1.969 0 1.969 1.969 3.938 1.969s3.938 1.969 5.908 3.938c1.969 0 1.969 1.969 3.938 1.969l5.908 5.908 212.677 210.708c9.846 11.815 17.723 25.6 17.723 43.323z" />
<glyph unicode="&#xe95f;" glyph-name="groups" d="M313.108 408.615c-27.569 41.354-41.354 88.615-41.354 141.785 0 90.585 37.415 165.415 96.492 210.708-19.692 35.446-59.077 61.046-110.277 61.046-86.646 0-135.877-70.892-135.877-151.631 0-43.323 13.785-80.738 43.323-106.338 15.754-15.754 29.538-35.446 29.538-55.138s-7.877-39.385-57.108-61.046c-70.892-31.508-135.877-74.831-137.846-139.815 1.969-43.323 29.538-76.8 70.892-76.8h64.985c9.846 0 19.692 5.908 25.6 15.754 31.508 57.108 90.585 92.554 139.815 118.154 17.723 7.877 21.662 29.538 11.815 43.323zM888.123 448c-49.231 21.662-57.108 39.385-57.108 61.046s13.785 41.354 29.538 55.138c29.538 27.569 43.323 63.015 43.323 106.338 0 80.738-47.262 151.631-135.877 151.631-51.2 0-90.585-25.6-112.246-61.046 59.077-45.292 96.492-120.123 96.492-210.708 0-53.169-13.785-100.431-41.354-141.785-9.846-15.754-3.938-35.446 11.815-43.323 49.231-23.631 108.308-61.046 139.815-118.154 5.908-9.846 15.754-15.754 25.6-15.754h64.985c41.354 0 68.923 33.477 68.923 76.8 1.969 64.985-63.015 108.308-133.908 139.815zM643.938 304.246c-53.169 23.631-63.015 45.292-63.015 66.954 0 23.631 15.754 45.292 33.477 61.046 31.508 29.538 49.231 70.892 49.231 118.154 0 88.615-53.169 165.415-149.662 165.415s-149.662-76.8-149.662-165.415c0-47.262 17.723-88.615 49.231-118.154 17.723-17.723 33.477-39.385 33.477-61.046 0-23.631-7.877-43.323-63.015-66.954-78.769-33.477-153.6-70.892-155.569-141.785 0-47.262 35.446-86.646 80.738-86.646h409.6c45.292 0 80.738 39.385 80.738 86.646-1.969 68.923-76.8 106.338-155.569 141.785z" />
<glyph unicode="&#xe960;" glyph-name="help" d="M559.262 211.692h-98.462c-15.754 0-27.569 11.815-27.569 27.569v29.538c0 82.708 53.169 157.538 131.938 185.108 23.631 7.877 45.292 21.662 63.015 41.354 98.462 118.154 7.877 259.938-110.277 263.877-43.323 1.969-84.677-13.785-116.185-43.323-25.6-23.631-41.354-53.169-45.292-86.646-1.969-11.815-13.785-21.662-29.538-21.662h-98.462c-17.723 0-31.508 13.785-29.538 31.508 7.877 74.831 41.354 141.785 94.523 194.954 63.015 59.077 143.754 90.585 230.4 88.615 163.446-5.908 297.354-139.815 303.262-303.262 5.908-137.846-78.769-261.908-206.769-309.169-17.723-7.877-29.538-21.662-29.538-39.385v-29.538c0-17.723-15.754-29.538-31.508-29.538zM590.769 4.923c0-15.754-13.785-29.538-29.538-29.538h-98.462c-15.754 0-29.538 13.785-29.538 29.538v98.462c0 15.754 13.785 29.538 29.538 29.538h98.462c15.754 0 29.538-13.785 29.538-29.538v-98.462z" />
<glyph unicode="&#xe961;" glyph-name="hide" d="M1020.062 465.723c-31.508 63.015-72.862 120.123-124.062 165.415l-167.385-165.415v-17.723c0-120.123-96.492-216.615-216.615-216.615h-17.723l-106.338-106.338c39.385-7.877 80.738-13.785 122.092-13.785 222.523 0 415.508 129.969 508.062 317.046 7.877 13.785 7.877 25.6 1.969 37.415zM955.077 849.723l-41.354 41.354c-11.815 11.815-33.477 9.846-47.262-5.908l-143.754-143.754c-64.985 27.569-135.877 41.354-210.708 41.354-222.523 0-415.508-129.969-508.062-317.046-5.908-11.815-5.908-25.6 0-35.446 43.323-88.615 108.308-161.477 189.046-216.615l-118.154-120.123c-13.785-13.785-15.754-35.446-5.908-47.262l41.354-41.354c11.815-11.815 33.477-9.846 47.262 5.908l791.631 791.631c15.754 13.785 17.723 35.446 5.908 47.262zM295.385 448c0 120.123 96.492 216.615 216.615 216.615 39.385 0 74.831-9.846 106.338-27.569l-59.077-59.077c-15.754 3.938-31.508 7.877-47.262 7.877-76.8 0-137.846-61.046-137.846-137.846 0-15.754 3.938-31.508 7.877-47.262l-59.077-59.077c-17.723 31.508-27.569 66.954-27.569 106.338z" />
<glyph unicode="&#xe962;" glyph-name="home" d="M964.923 428.308h-98.462v-433.231c0-11.815-7.877-19.692-19.692-19.692h-196.923c-11.815 0-19.692 7.877-19.692 19.692v334.769h-236.308v-334.769c0-11.815-7.877-19.692-19.692-19.692h-196.923c-11.815 0-19.692 7.877-19.692 19.692v433.231h-98.462c-7.877 0-15.754 3.938-17.723 11.815-3.938 7.877-1.969 15.754 3.938 21.662l452.923 452.923c7.877 7.877 21.662 7.877 27.569 0l452.923-452.923c5.908-5.908 5.908-13.785 3.938-21.662s-9.846-11.815-17.723-11.815z" />
<glyph unicode="&#xe963;" glyph-name="identity" d="M905.846 802.462h-218.585s1.969-13.785 1.969-19.692c0-76.8-61.046-137.846-137.846-137.846h-118.154c-76.8 0-137.846 61.046-137.846 137.846 0 5.908 0 19.692 1.969 19.692h-179.2c-43.323 0-78.769-35.446-78.769-78.769v-590.769c0-43.323 35.446-78.769 78.769-78.769h787.692c43.323 0 78.769 35.446 78.769 78.769v590.769c0 43.323-35.446 78.769-78.769 78.769zM427.323 211.692h-224.492c-25.6 0-45.292 23.631-45.292 49.231 0 39.385 41.354 61.046 84.677 78.769 29.538 11.815 33.477 23.631 33.477 37.415 0 11.815-7.877 23.631-17.723 33.477-17.723 15.754-27.569 39.385-27.569 64.985 0 49.231 29.538 90.585 82.708 90.585s82.708-41.354 82.708-90.585c0-25.6-9.846-49.231-27.569-64.985-9.846-9.846-17.723-21.662-17.723-33.477s3.938-23.631 33.477-37.415c43.323-17.723 84.677-39.385 84.677-78.769 3.938-25.6-15.754-49.231-41.354-49.231zM866.462 290.462c0-11.815-7.877-19.692-19.692-19.692h-275.692c-11.815 0-19.692 7.877-19.692 19.692v39.385c0 11.815 7.877 19.692 19.692 19.692h275.692c11.815 0 19.692-7.877 19.692-19.692v-39.385zM905.846 448c0-11.815-7.877-19.692-19.692-19.692h-315.077c-11.815 0-19.692 7.877-19.692 19.692v39.385c0 11.815 7.877 19.692 19.692 19.692h315.077c11.815 0 19.692-7.877 19.692-19.692v-39.385zM433.231 723.692h118.154c33.477 0 59.077 25.6 59.077 59.077s-25.6 59.077-59.077 59.077h-118.154c-33.477 0-59.077-25.6-59.077-59.077s25.6-59.077 59.077-59.077z" />
<glyph unicode="&#xe964;" glyph-name="image" d="M984.615 763.077c0 43.323-35.446 78.769-78.769 78.769h-787.692c-43.323 0-78.769-35.446-78.769-78.769v-630.154c0-43.323 35.446-78.769 78.769-78.769h787.692c43.323 0 78.769 35.446 78.769 78.769v630.154zM779.815 211.692h-571.077c-23.631 0-37.415 25.6-25.6 45.292l173.292 301.292c7.877 13.785 25.6 13.785 33.477 0l104.369-179.2c7.877-11.815 25.6-13.785 33.477-1.969l84.677 122.092c7.877 11.815 25.6 11.815 33.477 0l155.569-248.123c11.815-17.723 0-39.385-21.662-39.385zM728.615 566.154c-43.323 0-78.769 35.446-78.769 78.769s35.446 78.769 78.769 78.769 78.769-35.446 78.769-78.769-35.446-78.769-78.769-78.769z" />
<glyph unicode="&#xe965;" glyph-name="inbox" d="M984.615 802.462c0 43.323-35.446 78.769-78.769 78.769h-787.692c-43.323 0-78.769-35.446-78.769-78.769v-708.923c0-43.323 35.446-78.769 78.769-78.769h787.692c43.323 0 78.769 35.446 78.769 78.769v708.923zM374.154 270.769c0-11.815-7.877-19.692-19.692-19.692h-177.231c-11.815 0-19.692 7.877-19.692 19.692v78.769c0 11.815 7.877 19.692 19.692 19.692h177.231c11.815 0 19.692-7.877 19.692-19.692v-78.769zM374.154 467.692c0-11.815-7.877-19.692-19.692-19.692h-177.231c-11.815 0-19.692 7.877-19.692 19.692v78.769c0 11.815 7.877 19.692 19.692 19.692h177.231c11.815 0 19.692-7.877 19.692-19.692v-78.769zM374.154 664.615c0-11.815-7.877-19.692-19.692-19.692h-177.231c-11.815 0-19.692 7.877-19.692 19.692v78.769c0 11.815 7.877 19.692 19.692 19.692h177.231c11.815 0 19.692-7.877 19.692-19.692v-78.769zM866.462 152.615c0-11.815-7.877-19.692-19.692-19.692h-374.154c-11.815 0-19.692 7.877-19.692 19.692v590.769c0 11.815 7.877 19.692 19.692 19.692h374.154c11.815 0 19.692-7.877 19.692-19.692v-590.769z" />
<glyph unicode="&#xe966;" glyph-name="info" d="M512 920.615c-261.908 0-472.615-210.708-472.615-472.615s210.708-472.615 472.615-472.615 472.615 210.708 472.615 472.615-210.708 472.615-472.615 472.615zM512 682.338c33.477 0 59.077-25.6 59.077-59.077s-25.6-59.077-59.077-59.077-59.077 25.6-59.077 59.077 25.6 59.077 59.077 59.077zM610.462 268.8c0-9.846-7.877-17.723-19.692-17.723h-157.538c-9.846 0-19.692 5.908-19.692 17.723v39.385c0 9.846 7.877 21.662 19.692 21.662 9.846 0 19.692 5.908 19.692 17.723v78.769c0 9.846-7.877 21.662-19.692 21.662-9.846 0-19.692 5.908-19.692 17.723v39.385c0 9.846 7.877 21.662 19.692 21.662h118.154c9.846 0 19.692-9.846 19.692-21.662v-157.538c0-9.846 7.877-17.723 19.692-17.723 9.846 0 19.692-9.846 19.692-21.662v-39.385z" />
<glyph unicode="&#xe967;" glyph-name="info_alt" d="M512 920.615c-261.908 0-472.615-210.708-472.615-472.615s210.708-472.615 472.615-472.615 472.615 210.708 472.615 472.615-210.708 472.615-472.615 472.615zM512 93.538c-196.923 0-354.462 157.538-354.462 354.462s157.538 354.462 354.462 354.462 354.462-157.538 354.462-354.462-157.538-354.462-354.462-354.462zM512 682.338c33.477 0 59.077-25.6 59.077-59.077s-25.6-59.077-59.077-59.077-59.077 25.6-59.077 59.077 25.6 59.077 59.077 59.077zM610.462 268.8c0-9.846-7.877-17.723-19.692-17.723h-157.538c-9.846 0-19.692 5.908-19.692 17.723v39.385c0 9.846 7.877 21.662 19.692 21.662 9.846 0 19.692 5.908 19.692 17.723v78.769c0 9.846-7.877 21.662-19.692 21.662-9.846 0-19.692 5.908-19.692 17.723v39.385c0 9.846 7.877 21.662 19.692 21.662h118.154c9.846 0 19.692-9.846 19.692-21.662v-157.538c0-9.846 7.877-17.723 19.692-17.723 9.846 0 19.692-9.846 19.692-21.662v-39.385z" />
<glyph unicode="&#xe968;" glyph-name="insert_tag_field" d="M320.985 719.754l-45.292 37.415c-13.785 9.846-29.538 7.877-41.354-3.938l-228.431-287.508c-7.877-9.846-7.877-25.6 0-37.415l230.4-285.538c9.846-11.815 27.569-15.754 41.354-3.938l45.292 37.415c13.785 9.846 15.754 29.538 3.938 41.354l-185.108 230.4 187.077 230.4c7.877 11.815 5.908 29.538-7.877 41.354zM1018.092 465.723l-230.4 285.538c-9.846 11.815-27.569 15.754-41.354 3.938l-45.292-37.415c-13.785-9.846-15.754-29.538-3.938-41.354l187.077-230.4-187.077-230.4c-9.846-11.815-7.877-31.508 3.938-41.354l45.292-37.415c13.785-9.846 29.538-7.877 41.354 3.938l230.4 287.508c7.877 13.785 7.877 27.569 0 37.415zM622.277 747.323l-59.077 13.785c-15.754 3.938-33.477-5.908-37.415-21.662l-145.723-559.262c-3.938-15.754 5.908-31.508 21.662-35.446l59.077-13.785c15.754-3.938 33.477 5.908 37.415 21.662l145.723 559.262c3.938 17.723-5.908 31.508-21.662 35.446z" />
<glyph unicode="&#xe969;" glyph-name="insert_template" d="M955.077 211.692h-88.615v88.615c0 15.754-13.785 29.538-29.538 29.538h-59.077c-15.754 0-29.538-13.785-29.538-29.538v-88.615h-88.615c-15.754 0-29.538-13.785-29.538-29.538v-59.077c0-15.754 13.785-29.538 29.538-29.538h88.615v-88.615c0-15.754 13.785-29.538 29.538-29.538h59.077c15.754 0 29.538 13.785 29.538 29.538v88.615h88.615c15.754 0 29.538 13.785 29.538 29.538v59.077c0 15.754-13.785 29.538-29.538 29.538zM669.538 379.077c0 15.754 13.785 29.538 29.538 29.538h49.231v433.231c0 43.323-35.446 78.769-78.769 78.769h-551.385c-43.323 0-78.769-35.446-78.769-78.769v-551.385c0-43.323 35.446-78.769 78.769-78.769h433.231v49.231c0 15.754 13.785 29.538 29.538 29.538h88.615v88.615zM315.077 743.385c0-11.815-7.877-19.692-19.692-19.692h-118.154c-11.815 0-19.692 7.877-19.692 19.692v39.385c0 11.815 7.877 19.692 19.692 19.692h118.154c11.815 0 19.692-7.877 19.692-19.692v-39.385zM551.385 428.308c0-11.815-7.877-19.692-19.692-19.692h-354.462c-11.815 0-19.692 7.877-19.692 19.692v39.385c0 11.815 7.877 19.692 19.692 19.692h354.462c11.815 0 19.692-7.877 19.692-19.692v-39.385zM630.154 585.846c0-11.815-7.877-19.692-19.692-19.692h-433.231c-11.815 0-19.692 7.877-19.692 19.692v39.385c0 11.815 7.877 19.692 19.692 19.692h433.231c11.815 0 19.692-7.877 19.692-19.692v-39.385z" />
<glyph unicode="&#xe96a;" glyph-name="internal_share" d="M45.292 213.662v-3.938c0-15.754 11.815-27.569 27.569-27.569 7.877 0 13.785 1.969 19.692 7.877 0 0 198.892 214.646 443.077 149.662v-216.615c0-15.754 11.815-27.569 27.569-27.569 5.908 0 9.846 1.969 13.785 3.938l395.815 336.738c5.908 5.908 9.846 13.785 9.846 21.662s-3.938 15.754-7.877 19.692l-395.815 320.985c-3.938 1.969-9.846 3.938-15.754 3.938-15.754 0-27.569-11.815-27.569-27.569v-202.831c-1.969 0-391.877 59.077-490.338-358.4z" />
<glyph unicode="&#xe96b;" glyph-name="italic" d="M748.308 717.785v25.6c0 21.662-17.723 39.385-39.385 39.385h-275.692c-21.662 0-39.385-17.723-39.385-39.385v-39.385c0-21.662 17.723-39.385 39.385-39.385 33.477 0 59.077-31.508 51.2-63.015l-70.892-346.585c-5.908-25.6-27.569-43.323-51.2-43.323h-47.262c-21.662 0-39.385-17.723-39.385-39.385v-39.385c0-21.662 17.723-39.385 39.385-39.385h275.692c21.662 0 39.385 17.723 39.385 39.385v39.385c0 21.662-17.723 39.385-39.385 39.385-33.477 0-59.077 31.508-51.2 63.015l70.892 346.585c5.908 25.6 27.569 43.323 51.2 43.323h33.477c29.538 0 53.169 23.631 53.169 53.169z" />
<glyph unicode="&#xe96c;" glyph-name="jump_to_bottom" d="M799.508 361.354l-265.846-267.815c-11.815-11.815-31.508-11.815-43.323 0l-265.846 267.815c-11.815 11.815-11.815 31.508 0 43.323l43.323 43.323c11.815 11.815 31.508 11.815 43.323 0l179.2-185.108c11.815-11.815 31.508-11.815 43.323 0l179.2 183.138c11.815 11.815 31.508 11.815 43.323 0l43.323-43.323c9.846-11.815 9.846-29.538 0-41.354zM799.508 717.785l-265.846-271.754c-11.815-11.815-31.508-11.815-43.323 0l-265.846 271.754c-11.815 11.815-11.815 31.508 0 43.323l43.323 43.323c11.815 11.815 31.508 11.815 43.323 0l179.2-185.108c11.815-11.815 31.508-11.815 43.323 0l179.2 183.138c11.815 11.815 31.508 11.815 43.323 0l43.323-43.323c9.846-11.815 9.846-31.508 0-41.354z" />
</font>
</defs>
</svg>
